<?xml version="1.0" encoding="UTF-8"?>
<!-- Generator: visioncortex VTracer 0.6.4 -->
<svg version="1.1" xmlns="http://www.w3.org/2000/svg" width="2172" height="724">
<path d="M0 0 C716.76 0 1433.52 0 2172 0 C2172 238.92 2172 477.84 2172 724 C1455.24 724 738.48 724 0 724 C0 485.08 0 246.16 0 0 Z " fill="#010F22" transform="translate(0,0)"/>
<path d="M0 0 C716.76 0 1433.52 0 2172 0 C2172 238.92 2172 477.84 2172 724 C1455.24 724 738.48 724 0 724 C0 485.08 0 246.16 0 0 Z M79.56 145 C70.82 156.69 69.7 167.47 69.74 181.74 C69.74 183.35 69.73 184.96 69.73 186.58 C69.72 191 69.72 195.42 69.72 199.84 C69.73 204.61 69.72 209.38 69.71 214.15 C69.7 223.5 69.7 232.84 69.7 242.19 C69.7 249.78 69.7 257.38 69.69 264.97 C69.69 266.05 69.69 267.14 69.69 268.25 C69.69 270.45 69.69 272.64 69.69 274.84 C69.68 295.44 69.68 316.03 69.69 336.63 C69.69 355.47 69.68 374.31 69.66 393.15 C69.64 412.5 69.63 431.84 69.64 451.19 C69.64 462.05 69.64 472.91 69.62 483.78 C69.61 493.02 69.61 502.27 69.62 511.51 C69.63 516.23 69.63 520.95 69.62 525.66 C69.6 529.98 69.61 534.3 69.62 538.62 C69.62 540.18 69.62 541.74 69.61 543.3 C69.54 559.07 72.82 570.53 83.75 582.31 C94.61 592.56 107.18 595.46 121.63 595.38 C123.01 595.38 124.39 595.38 125.77 595.39 C129.57 595.4 133.37 595.39 137.17 595.38 C141.31 595.38 145.46 595.39 149.6 595.39 C156.9 595.41 164.19 595.4 171.49 595.4 C182.41 595.39 193.33 595.39 204.25 595.4 C222.87 595.42 241.48 595.42 260.09 595.41 C278.96 595.4 297.82 595.4 316.69 595.41 C317.88 595.41 319.07 595.41 320.3 595.41 C325.15 595.42 330 595.42 334.85 595.42 C380.04 595.44 425.23 595.44 470.43 595.44 C471.1 595.44 471.77 595.44 472.46 595.44 C475.17 595.44 477.88 595.44 480.59 595.44 C488.08 595.44 495.57 595.44 503.05 595.44 C503.73 595.44 504.41 595.44 505.1 595.44 C536.42 595.43 567.74 595.44 599.06 595.44 C602.48 595.44 605.9 595.44 609.31 595.44 C614.8 595.44 620.28 595.44 625.76 595.44 C626.44 595.44 627.12 595.44 627.82 595.44 C631.26 595.44 634.7 595.45 638.14 595.45 C670.22 595.45 702.31 595.45 734.4 595.46 C735.45 595.46 735.45 595.46 736.52 595.46 C781.8 595.46 827.09 595.46 872.38 595.45 C873.84 595.45 875.3 595.45 876.76 595.45 C892.89 595.45 909.01 595.45 925.14 595.45 C926.23 595.45 926.23 595.45 927.35 595.45 C929.56 595.45 931.76 595.45 933.97 595.45 C935.06 595.45 935.06 595.45 936.18 595.45 C939.86 595.45 943.54 595.45 947.22 595.45 C1020.46 595.44 1093.69 595.44 1224.47 595.47 C1248.67 595.47 1272.88 595.48 1297.09 595.48 C1297.81 595.48 1298.53 595.48 1299.28 595.48 C1344.54 595.5 1389.79 595.5 1435.05 595.5 C1436.1 595.5 1436.1 595.5 1437.17 595.5 C1468.55 595.5 1499.94 595.5 1531.32 595.5 C1542.3 595.5 1553.28 595.5 1564.25 595.5 C1566.99 595.5 1569.72 595.5 1572.45 595.5 C1603.77 595.49 1635.09 595.49 1666.41 595.5 C1667.42 595.5 1667.42 595.5 1668.46 595.5 C1679.32 595.51 1690.19 595.51 1701.05 595.52 C1746.79 595.53 1792.54 595.53 1838.28 595.51 C1843.11 595.51 1847.95 595.51 1852.79 595.51 C1853.97 595.51 1855.16 595.51 1856.38 595.51 C1875.2 595.5 1894.02 595.51 1912.83 595.52 C1931.32 595.53 1949.81 595.53 1968.3 595.51 C1979.15 595.5 1990 595.5 2000.84 595.52 C2008.04 595.53 2015.24 595.53 2022.44 595.51 C2026.53 595.5 2030.61 595.5 2034.69 595.52 C2038.41 595.53 2042.12 595.53 2045.83 595.51 C2047.77 595.5 2049.72 595.51 2051.67 595.53 C2066.02 595.41 2078.77 591.08 2089.31 581.19 C2093.08 577.2 2095.68 572.95 2098 568 C2098.32 567.45 2098.64 566.9 2098.97 566.34 C2102.94 558.9 2102.56 551.26 2102.5 543.07 C2102.51 541.44 2102.51 539.82 2102.52 538.2 C2102.53 533.76 2102.52 529.32 2102.51 524.88 C2102.5 520.08 2102.51 515.29 2102.52 510.49 C2102.53 501.1 2102.52 491.71 2102.51 482.32 C2102.49 471.39 2102.5 460.45 2102.5 449.51 C2102.51 430 2102.49 410.48 2102.47 390.96 C2102.44 372.03 2102.44 353.1 2102.45 334.17 C2102.46 313.55 2102.46 292.93 2102.44 272.3 C2102.44 270.11 2102.44 267.91 2102.44 265.71 C2102.44 264.62 2102.44 263.54 2102.44 262.43 C2102.43 254.81 2102.44 247.18 2102.44 239.56 C2102.44 230.27 2102.44 220.98 2102.42 211.69 C2102.41 206.96 2102.4 202.22 2102.41 197.48 C2102.42 193.14 2102.41 188.8 2102.39 184.46 C2102.39 182.89 2102.39 181.32 2102.4 179.76 C2102.46 164.14 2099.22 151.48 2088 140 C2084.76 137.51 2081.43 135.21 2078 133 C2077.24 132.48 2076.47 131.96 2075.69 131.42 C2067.99 127.36 2059.95 127.72 2051.47 127.75 C2050.08 127.74 2048.7 127.74 2047.32 127.74 C2043.51 127.73 2039.7 127.73 2035.9 127.74 C2031.74 127.74 2027.59 127.74 2023.44 127.73 C2016.12 127.72 2008.81 127.72 2001.5 127.73 C1990.56 127.73 1979.61 127.73 1968.67 127.72 C1950.01 127.71 1931.36 127.71 1912.71 127.71 C1893.8 127.71 1874.89 127.71 1855.98 127.7 C1854.19 127.7 1854.19 127.7 1852.36 127.7 C1847.5 127.7 1842.64 127.7 1837.78 127.69 C1787.74 127.67 1737.69 127.67 1687.64 127.67 C1682.18 127.67 1676.72 127.67 1671.26 127.67 C1669.89 127.67 1668.52 127.67 1667.15 127.67 C1636.45 127.66 1605.74 127.66 1575.04 127.66 C1568.19 127.65 1561.33 127.65 1554.48 127.65 C1553.8 127.65 1553.12 127.65 1552.42 127.65 C1548.29 127.65 1544.16 127.65 1540.04 127.65 C1537.97 127.65 1535.9 127.65 1533.83 127.65 C1501.68 127.64 1469.52 127.64 1437.36 127.64 C1436.31 127.63 1436.31 127.63 1435.24 127.63 C1390.59 127.63 1345.94 127.63 1301.29 127.63 C1299.09 127.63 1296.89 127.63 1294.7 127.63 C1279.27 127.63 1263.84 127.63 1248.42 127.63 C1243.99 127.63 1239.57 127.63 1235.15 127.63 C1231.46 127.63 1227.77 127.63 1224.08 127.63 C1154.39 127.63 1084.7 127.63 1015.01 127.61 C1014.28 127.61 1013.54 127.61 1012.79 127.61 C989.86 127.6 966.94 127.6 944.01 127.59 C920.49 127.58 896.97 127.57 873.45 127.57 C872.72 127.57 872 127.57 871.25 127.57 C825.9 127.55 780.54 127.55 735.18 127.54 C734.13 127.54 734.13 127.54 733.06 127.54 C702.3 127.54 671.54 127.54 640.78 127.54 C628.4 127.54 616.03 127.54 603.65 127.54 C601.6 127.54 599.55 127.54 597.5 127.54 C566.11 127.54 534.72 127.54 503.33 127.53 C502.65 127.53 501.98 127.53 501.28 127.53 C490.39 127.52 479.5 127.52 468.61 127.52 C423.99 127.5 379.37 127.49 334.75 127.51 C328.68 127.51 322.61 127.51 316.54 127.51 C315.36 127.51 314.17 127.51 312.94 127.51 C294.08 127.52 275.22 127.51 256.36 127.49 C237.83 127.48 219.3 127.48 200.77 127.5 C189.9 127.5 179.03 127.5 168.16 127.48 C160.94 127.47 153.73 127.48 146.51 127.49 C142.42 127.5 138.33 127.5 134.23 127.49 C130.52 127.47 126.8 127.48 123.08 127.5 C121.13 127.5 119.17 127.49 117.22 127.47 C101.75 127.6 89.52 133.03 79.56 145 Z " fill="#FDFDFD" transform="translate(0,0)"/>
<path d="M0 0 C1.38 -0 2.76 -0.01 4.14 -0.01 C7.95 -0.02 11.76 -0.01 15.57 -0.01 C19.73 -0 23.88 -0.01 28.04 -0.01 C35.35 -0.02 42.66 -0.02 49.98 -0.01 C60.93 -0.01 71.88 -0.01 82.82 -0.02 C101.48 -0.03 120.14 -0.03 138.8 -0.03 C157.72 -0.02 176.63 -0.02 195.55 -0.03 C196.74 -0.03 197.93 -0.03 199.16 -0.03 C204.03 -0.03 208.89 -0.03 213.75 -0.03 C259.05 -0.05 304.36 -0.05 349.66 -0.05 C350.34 -0.05 351.01 -0.05 351.7 -0.05 C354.42 -0.05 357.14 -0.05 359.85 -0.05 C367.36 -0.05 374.87 -0.05 382.38 -0.05 C383.39 -0.05 383.39 -0.05 384.43 -0.05 C415.14 -0.05 445.86 -0.05 476.57 -0.05 C480.68 -0.05 484.78 -0.06 488.89 -0.06 C489.57 -0.06 490.25 -0.06 490.95 -0.06 C492.32 -0.06 493.7 -0.06 495.07 -0.06 C498.51 -0.06 501.94 -0.06 505.38 -0.06 C506.06 -0.06 506.74 -0.06 507.44 -0.06 C510.89 -0.06 514.34 -0.06 517.78 -0.06 C549.95 -0.06 582.11 -0.07 614.27 -0.07 C614.97 -0.07 615.67 -0.07 616.39 -0.07 C661.05 -0.07 705.71 -0.07 750.37 -0.07 C752.57 -0.07 754.77 -0.07 756.96 -0.07 C773.13 -0.07 789.3 -0.07 805.46 -0.06 C806.94 -0.06 808.41 -0.06 809.89 -0.06 C811.36 -0.06 812.84 -0.06 814.31 -0.06 C815.41 -0.06 815.41 -0.06 816.53 -0.06 C820.22 -0.06 823.91 -0.06 827.6 -0.06 C897.31 -0.06 967.01 -0.06 1036.72 -0.07 C1037.46 -0.07 1038.19 -0.07 1038.95 -0.07 C1061.14 -0.08 1083.34 -0.08 1105.53 -0.08 C1129.8 -0.09 1154.07 -0.09 1178.34 -0.1 C1179.06 -0.1 1179.78 -0.1 1180.53 -0.1 C1225.9 -0.11 1271.26 -0.11 1316.63 -0.11 C1317.33 -0.11 1318.03 -0.11 1318.75 -0.11 C1349.52 -0.11 1380.28 -0.11 1411.05 -0.11 C1422.74 -0.11 1434.43 -0.11 1446.12 -0.11 C1448.86 -0.11 1451.6 -0.11 1454.34 -0.11 C1485.73 -0.11 1517.13 -0.11 1548.53 -0.12 C1549.2 -0.12 1549.88 -0.12 1550.58 -0.12 C1561.48 -0.12 1572.37 -0.12 1583.27 -0.13 C1629.12 -0.14 1674.97 -0.14 1720.82 -0.13 C1725.67 -0.13 1730.52 -0.13 1735.36 -0.12 C1736.55 -0.12 1737.74 -0.12 1738.97 -0.12 C1757.83 -0.12 1776.7 -0.12 1795.57 -0.13 C1814.1 -0.14 1832.64 -0.14 1851.17 -0.13 C1862.05 -0.12 1872.92 -0.12 1883.8 -0.14 C1891.02 -0.15 1898.23 -0.14 1905.45 -0.13 C1909.54 -0.12 1913.64 -0.12 1917.73 -0.13 C1921.45 -0.14 1925.16 -0.14 1928.88 -0.13 C1930.84 -0.12 1932.8 -0.13 1934.76 -0.15 C1948.08 -0.06 1958.97 4.46 1968.93 13.43 C1976.92 22.22 1981.7 33 1981.72 44.85 C1981.73 45.51 1981.73 46.18 1981.73 46.86 C1981.74 49.1 1981.74 51.34 1981.74 53.57 C1981.74 55.19 1981.75 56.8 1981.75 58.42 C1981.77 62.87 1981.77 67.32 1981.78 71.77 C1981.78 76.56 1981.79 81.36 1981.8 86.15 C1981.83 97.74 1981.84 109.32 1981.86 120.9 C1981.86 124.18 1981.86 127.45 1981.87 130.72 C1981.89 151.04 1981.91 171.36 1981.93 191.68 C1981.93 196.39 1981.93 201.1 1981.94 205.8 C1981.94 206.97 1981.94 208.14 1981.94 209.35 C1981.95 228.3 1981.98 247.24 1982.03 266.19 C1982.07 285.65 1982.09 305.1 1982.1 324.56 C1982.1 335.48 1982.11 346.4 1982.15 357.32 C1982.17 366.63 1982.18 375.93 1982.17 385.23 C1982.17 389.98 1982.17 394.72 1982.2 399.47 C1982.22 403.82 1982.22 408.16 1982.2 412.51 C1982.2 414.08 1982.2 415.65 1982.22 417.22 C1982.36 432.64 1978.02 443.11 1967.63 454.37 C1959.18 462.67 1947.66 467.37 1935.83 467.38 C1934.09 467.38 1934.09 467.38 1932.31 467.39 C1930.4 467.38 1930.4 467.38 1928.45 467.38 C1927.07 467.38 1925.7 467.38 1924.32 467.39 C1920.52 467.39 1916.72 467.39 1912.92 467.39 C1908.77 467.39 1904.63 467.39 1900.48 467.39 C1893.19 467.4 1885.89 467.4 1878.59 467.4 C1867.66 467.4 1856.74 467.4 1845.81 467.41 C1827.2 467.42 1808.58 467.42 1789.96 467.42 C1771.08 467.43 1752.21 467.43 1733.33 467.44 C1731.55 467.44 1731.55 467.44 1729.72 467.44 C1724.87 467.44 1720.02 467.44 1715.17 467.44 C1657.03 467.47 1598.89 467.48 1540.75 467.49 C1521 467.49 1501.24 467.49 1481.49 467.5 C1480.81 467.5 1480.14 467.5 1479.45 467.5 C1473.33 467.5 1467.21 467.5 1461.09 467.5 C1391.93 467.51 1322.77 467.53 1181.87 467.54 C1175.29 467.54 1168.71 467.54 1162.13 467.54 C1159.93 467.54 1157.73 467.54 1155.54 467.54 C1141.58 467.54 1127.62 467.55 1113.66 467.55 C1109.97 467.55 1106.29 467.55 1102.61 467.55 C1033.05 467.55 963.48 467.56 893.92 467.58 C893.19 467.59 892.45 467.59 891.7 467.59 C868.08 467.59 844.46 467.6 820.85 467.61 C798.11 467.62 775.36 467.62 752.62 467.63 C751.9 467.63 751.18 467.63 750.43 467.63 C705.16 467.65 659.89 467.66 614.63 467.66 C613.93 467.66 613.23 467.66 612.51 467.66 C581.8 467.67 551.1 467.67 520.4 467.67 C508.05 467.67 495.69 467.67 483.34 467.67 C481.3 467.67 479.25 467.67 477.2 467.67 C445.87 467.67 414.54 467.68 383.21 467.69 C382.19 467.69 382.19 467.69 381.16 467.69 C370.29 467.7 359.42 467.7 348.55 467.71 C304.01 467.73 259.47 467.74 214.93 467.73 C208.87 467.72 202.82 467.72 196.76 467.72 C195.57 467.72 194.39 467.72 193.16 467.72 C174.34 467.72 155.51 467.73 136.69 467.75 C118.19 467.76 99.69 467.76 81.2 467.75 C70.34 467.74 59.49 467.74 48.64 467.76 C41.44 467.77 34.23 467.77 27.03 467.76 C22.95 467.75 18.86 467.75 14.77 467.76 C11.06 467.78 7.35 467.77 3.64 467.76 C1.69 467.75 -0.26 467.76 -2.21 467.78 C-16.72 467.66 -27.46 462.76 -38.1 453.06 C-49.26 441.33 -50.72 428.9 -50.68 413.53 C-50.68 411.92 -50.69 410.31 -50.69 408.7 C-50.71 404.29 -50.71 399.87 -50.7 395.46 C-50.7 390.69 -50.72 385.93 -50.72 381.16 C-50.74 371.83 -50.75 362.49 -50.75 353.16 C-50.75 345.57 -50.75 337.98 -50.76 330.4 C-50.78 308.87 -50.79 287.35 -50.78 265.82 C-50.78 264.66 -50.78 263.5 -50.78 262.31 C-50.78 261.15 -50.78 259.99 -50.78 258.79 C-50.78 239.97 -50.8 221.15 -50.83 202.34 C-50.86 183 -50.87 163.67 -50.87 144.34 C-50.87 133.49 -50.88 122.64 -50.9 111.79 C-50.92 102.56 -50.92 93.32 -50.91 84.08 C-50.9 79.37 -50.9 74.66 -50.92 69.95 C-50.93 65.63 -50.93 61.31 -50.91 56.99 C-50.91 55.44 -50.91 53.88 -50.92 52.32 C-51.03 36.72 -48.02 24.88 -37.41 13.25 C-26.19 2.72 -15.03 -0.06 0 0 Z M473.59 17.25 C474.37 17.87 475.16 18.49 475.97 19.13 C483.32 25.08 488.3 31.76 489.59 41.25 C489.68 43.49 489.72 45.74 489.73 47.98 C489.73 48.64 489.73 49.3 489.73 49.97 C489.74 52.16 489.75 54.35 489.75 56.55 C489.75 58.14 489.76 59.72 489.76 61.31 C489.78 65.68 489.78 70.04 489.79 74.41 C489.8 78.15 489.81 81.89 489.82 85.64 C489.85 97.97 489.87 110.3 489.89 122.63 C489.89 125.84 489.9 129.05 489.9 132.26 C489.94 152.21 489.96 172.16 489.98 192.11 C489.98 196.73 489.99 201.34 489.99 205.96 C489.99 207.11 489.99 208.26 489.99 209.44 C490.01 228.04 490.05 246.63 490.1 265.23 C490.16 284.33 490.18 303.42 490.19 322.52 C490.2 333.24 490.21 343.96 490.25 354.68 C490.29 363.81 490.3 372.94 490.29 382.07 C490.28 386.72 490.28 391.38 490.31 396.04 C490.34 400.3 490.34 404.57 490.32 408.84 C490.32 410.38 490.32 411.91 490.34 413.45 C490.46 424.35 488.78 434.11 480.96 442.31 C477.91 444.8 474.86 447.07 471.59 449.25 C516.48 449.27 561.38 449.29 606.28 449.32 C607.16 449.32 608.03 449.32 608.94 449.32 C703.06 449.36 797.19 449.4 891.31 449.42 C893.4 449.42 895.49 449.42 897.58 449.42 C941.46 449.43 985.34 449.45 1029.22 449.46 C1051.26 449.46 1073.3 449.47 1095.34 449.47 C1098.66 449.47 1101.99 449.47 1105.31 449.47 C1156.52 449.49 1207.72 449.5 1258.93 449.53 C1260.03 449.53 1261.13 449.53 1262.26 449.53 C1280.02 449.54 1297.77 449.55 1315.53 449.56 C1366.66 449.58 1417.79 449.61 1468.92 449.62 C1470.5 449.62 1470.5 449.62 1472.11 449.62 C1495.18 449.62 1518.26 449.63 1541.33 449.63 C1550.61 449.63 1559.9 449.63 1569.18 449.63 C1570.2 449.63 1571.21 449.63 1572.26 449.63 C1605.02 449.64 1637.77 449.65 1670.52 449.68 C1703.51 449.7 1736.5 449.71 1769.48 449.71 C1774.04 449.71 1778.6 449.7 1783.15 449.7 C1784.04 449.7 1784.94 449.7 1785.86 449.7 C1800.01 449.7 1814.17 449.71 1828.33 449.73 C1842.24 449.75 1856.15 449.75 1870.06 449.74 C1878.22 449.73 1886.38 449.74 1894.54 449.76 C1900.6 449.77 1906.65 449.76 1912.7 449.75 C1915.14 449.75 1917.58 449.75 1920.01 449.76 C1923.32 449.78 1926.62 449.76 1929.92 449.75 C1930.87 449.76 1931.81 449.77 1932.78 449.78 C1941.85 449.68 1950.07 446.87 1956.71 440.53 C1964.86 430.64 1966.61 420.61 1966.45 408.16 C1966.45 406.59 1966.46 405.01 1966.47 403.43 C1966.49 399.14 1966.47 394.84 1966.44 390.55 C1966.42 385.9 1966.43 381.25 1966.45 376.61 C1966.46 367.52 1966.44 358.43 1966.41 349.35 C1966.37 338.76 1966.37 328.17 1966.37 317.58 C1966.37 298.69 1966.33 279.8 1966.28 260.91 C1966.23 242.59 1966.2 224.26 1966.2 205.94 C1966.2 204.81 1966.2 203.68 1966.2 202.52 C1966.2 201.39 1966.2 200.27 1966.2 199.1 C1966.2 196.83 1966.2 194.56 1966.2 192.29 C1966.2 191.17 1966.19 190.06 1966.19 188.9 C1966.19 171.42 1966.17 153.95 1966.14 136.47 C1966.13 130.14 1966.12 123.81 1966.12 117.48 C1966.11 107.44 1966.1 97.41 1966.06 87.37 C1966.05 82.79 1966.04 78.2 1966.04 73.62 C1966.04 69.42 1966.03 65.22 1966 61.02 C1966 59.5 1966 57.99 1966 56.47 C1966.03 43.89 1964.64 34.53 1955.59 25.25 C1947.6 18.75 1940.56 16.95 1930.43 17 C1928.89 17 1928.89 17 1927.32 17 C1923.86 16.99 1920.4 17 1916.94 17.01 C1914.43 17 1911.92 17 1909.41 17 C1903.93 16.99 1898.44 17 1892.96 17 C1884.75 17.01 1876.54 17.01 1868.33 17.01 C1854.34 17 1840.35 17 1826.36 17.01 C1812.18 17.02 1798 17.03 1783.82 17.03 C1782.92 17.03 1782.03 17.03 1781.1 17.03 C1776.54 17.03 1771.98 17.02 1767.42 17.02 C1734.37 17.02 1701.32 17.03 1668.27 17.04 C1635.53 17.05 1602.8 17.06 1570.07 17.06 C1569.05 17.06 1568.03 17.06 1566.99 17.06 C1557.71 17.06 1548.43 17.06 1539.14 17.06 C1516.07 17.07 1493 17.07 1469.93 17.07 C1468.88 17.07 1467.83 17.07 1466.74 17.07 C1415.62 17.08 1364.49 17.09 1313.36 17.1 C1295.62 17.11 1277.87 17.11 1260.13 17.11 C1258.48 17.11 1258.48 17.11 1256.79 17.12 C1205.65 17.13 1154.5 17.14 1103.35 17.14 C1100.03 17.14 1096.71 17.14 1093.39 17.14 C1071.38 17.15 1049.38 17.15 1027.38 17.15 C983.6 17.16 939.82 17.16 896.04 17.17 C893.95 17.17 891.87 17.17 889.78 17.17 C795.91 17.18 702.03 17.2 608.16 17.22 C607.28 17.22 606.4 17.22 605.49 17.22 C561.52 17.23 517.56 17.24 473.59 17.25 Z " fill="#1E76EC" transform="translate(120.41378676891327,127.74815100431442)"/>
<path d="M0 0 C1.38 -0 2.76 -0.01 4.14 -0.01 C7.95 -0.02 11.76 -0.01 15.57 -0.01 C19.73 -0 23.88 -0.01 28.04 -0.01 C35.35 -0.02 42.66 -0.02 49.98 -0.01 C60.93 -0.01 71.88 -0.01 82.82 -0.02 C101.48 -0.03 120.14 -0.03 138.8 -0.03 C157.72 -0.02 176.63 -0.02 195.55 -0.03 C196.74 -0.03 197.93 -0.03 199.16 -0.03 C204.03 -0.03 208.89 -0.03 213.75 -0.03 C259.05 -0.05 304.36 -0.05 349.66 -0.05 C350.34 -0.05 351.01 -0.05 351.7 -0.05 C354.42 -0.05 357.14 -0.05 359.85 -0.05 C367.36 -0.05 374.87 -0.05 382.38 -0.05 C383.39 -0.05 383.39 -0.05 384.43 -0.05 C415.14 -0.05 445.86 -0.05 476.57 -0.05 C480.68 -0.05 484.78 -0.06 488.89 -0.06 C489.57 -0.06 490.25 -0.06 490.95 -0.06 C492.32 -0.06 493.7 -0.06 495.07 -0.06 C498.51 -0.06 501.94 -0.06 505.38 -0.06 C506.06 -0.06 506.74 -0.06 507.44 -0.06 C510.89 -0.06 514.34 -0.06 517.78 -0.06 C549.95 -0.06 582.11 -0.07 614.27 -0.07 C614.97 -0.07 615.67 -0.07 616.39 -0.07 C661.05 -0.07 705.71 -0.07 750.37 -0.07 C752.57 -0.07 754.77 -0.07 756.96 -0.07 C773.13 -0.07 789.3 -0.07 805.46 -0.06 C806.94 -0.06 808.41 -0.06 809.89 -0.06 C811.36 -0.06 812.84 -0.06 814.31 -0.06 C815.41 -0.06 815.41 -0.06 816.53 -0.06 C820.22 -0.06 823.91 -0.06 827.6 -0.06 C897.31 -0.06 967.01 -0.06 1036.72 -0.07 C1037.46 -0.07 1038.19 -0.07 1038.95 -0.07 C1061.14 -0.08 1083.34 -0.08 1105.53 -0.08 C1129.8 -0.09 1154.07 -0.09 1178.34 -0.1 C1179.06 -0.1 1179.78 -0.1 1180.53 -0.1 C1225.9 -0.11 1271.26 -0.11 1316.63 -0.11 C1317.33 -0.11 1318.03 -0.11 1318.75 -0.11 C1349.52 -0.11 1380.28 -0.11 1411.05 -0.11 C1422.74 -0.11 1434.43 -0.11 1446.12 -0.11 C1448.86 -0.11 1451.6 -0.11 1454.34 -0.11 C1485.73 -0.11 1517.13 -0.11 1548.53 -0.12 C1549.2 -0.12 1549.88 -0.12 1550.58 -0.12 C1561.48 -0.12 1572.37 -0.12 1583.27 -0.13 C1629.12 -0.14 1674.97 -0.14 1720.82 -0.13 C1725.67 -0.13 1730.52 -0.13 1735.36 -0.12 C1736.55 -0.12 1737.74 -0.12 1738.97 -0.12 C1757.83 -0.12 1776.7 -0.12 1795.57 -0.13 C1814.1 -0.14 1832.64 -0.14 1851.17 -0.13 C1862.05 -0.12 1872.92 -0.12 1883.8 -0.14 C1891.02 -0.15 1898.23 -0.14 1905.45 -0.13 C1909.54 -0.12 1913.64 -0.12 1917.73 -0.13 C1921.45 -0.14 1925.16 -0.14 1928.88 -0.13 C1930.84 -0.12 1932.8 -0.13 1934.76 -0.15 C1948.08 -0.06 1958.97 4.46 1968.93 13.43 C1976.92 22.22 1981.7 33 1981.72 44.85 C1981.73 45.51 1981.73 46.18 1981.73 46.86 C1981.74 49.1 1981.74 51.34 1981.74 53.57 C1981.74 55.19 1981.75 56.8 1981.75 58.42 C1981.77 62.87 1981.77 67.32 1981.78 71.77 C1981.78 76.56 1981.79 81.36 1981.8 86.15 C1981.83 97.74 1981.84 109.32 1981.86 120.9 C1981.86 124.18 1981.86 127.45 1981.87 130.72 C1981.89 151.04 1981.91 171.36 1981.93 191.68 C1981.93 196.39 1981.93 201.1 1981.94 205.8 C1981.94 206.97 1981.94 208.14 1981.94 209.35 C1981.95 228.3 1981.98 247.24 1982.03 266.19 C1982.07 285.65 1982.09 305.1 1982.1 324.56 C1982.1 335.48 1982.11 346.4 1982.15 357.32 C1982.17 366.63 1982.18 375.93 1982.17 385.23 C1982.17 389.98 1982.17 394.72 1982.2 399.47 C1982.22 403.82 1982.22 408.16 1982.2 412.51 C1982.2 414.08 1982.2 415.65 1982.22 417.22 C1982.36 432.64 1978.02 443.11 1967.63 454.37 C1959.18 462.67 1947.66 467.37 1935.83 467.38 C1934.09 467.38 1934.09 467.38 1932.31 467.39 C1930.4 467.38 1930.4 467.38 1928.45 467.38 C1927.07 467.38 1925.7 467.38 1924.32 467.39 C1920.52 467.39 1916.72 467.39 1912.92 467.39 C1908.77 467.39 1904.63 467.39 1900.48 467.39 C1893.19 467.4 1885.89 467.4 1878.59 467.4 C1867.66 467.4 1856.74 467.4 1845.81 467.41 C1827.2 467.42 1808.58 467.42 1789.96 467.42 C1771.08 467.43 1752.21 467.43 1733.33 467.44 C1731.55 467.44 1731.55 467.44 1729.72 467.44 C1724.87 467.44 1720.02 467.44 1715.17 467.44 C1657.03 467.47 1598.89 467.48 1540.75 467.49 C1521 467.49 1501.24 467.49 1481.49 467.5 C1480.81 467.5 1480.14 467.5 1479.45 467.5 C1473.33 467.5 1467.21 467.5 1461.09 467.5 C1391.93 467.51 1322.77 467.53 1181.87 467.54 C1175.29 467.54 1168.71 467.54 1162.13 467.54 C1159.93 467.54 1157.73 467.54 1155.54 467.54 C1141.58 467.54 1127.62 467.55 1113.66 467.55 C1109.97 467.55 1106.29 467.55 1102.61 467.55 C1033.05 467.55 963.48 467.56 893.92 467.58 C893.19 467.59 892.45 467.59 891.7 467.59 C868.08 467.59 844.46 467.6 820.85 467.61 C798.11 467.62 775.36 467.62 752.62 467.63 C751.9 467.63 751.18 467.63 750.43 467.63 C705.16 467.65 659.89 467.66 614.63 467.66 C613.93 467.66 613.23 467.66 612.51 467.66 C581.8 467.67 551.1 467.67 520.4 467.67 C508.05 467.67 495.69 467.67 483.34 467.67 C481.3 467.67 479.25 467.67 477.2 467.67 C445.87 467.67 414.54 467.68 383.21 467.69 C382.19 467.69 382.19 467.69 381.16 467.69 C370.29 467.7 359.42 467.7 348.55 467.71 C304.01 467.73 259.47 467.74 214.93 467.73 C208.87 467.72 202.82 467.72 196.76 467.72 C195.57 467.72 194.39 467.72 193.16 467.72 C174.34 467.72 155.51 467.73 136.69 467.75 C118.19 467.76 99.69 467.76 81.2 467.75 C70.34 467.74 59.49 467.74 48.64 467.76 C41.44 467.77 34.23 467.77 27.03 467.76 C22.95 467.75 18.86 467.75 14.77 467.76 C11.06 467.78 7.35 467.77 3.64 467.76 C1.69 467.75 -0.26 467.76 -2.21 467.78 C-16.72 467.66 -27.46 462.76 -38.1 453.06 C-49.26 441.33 -50.72 428.9 -50.68 413.53 C-50.68 411.92 -50.69 410.31 -50.69 408.7 C-50.71 404.29 -50.71 399.87 -50.7 395.46 C-50.7 390.69 -50.72 385.93 -50.72 381.16 C-50.74 371.83 -50.75 362.49 -50.75 353.16 C-50.75 345.57 -50.75 337.98 -50.76 330.4 C-50.78 308.87 -50.79 287.35 -50.78 265.82 C-50.78 264.66 -50.78 263.5 -50.78 262.31 C-50.78 261.15 -50.78 259.99 -50.78 258.79 C-50.78 239.97 -50.8 221.15 -50.83 202.34 C-50.86 183 -50.87 163.67 -50.87 144.34 C-50.87 133.49 -50.88 122.64 -50.9 111.79 C-50.92 102.56 -50.92 93.32 -50.91 84.08 C-50.9 79.37 -50.9 74.66 -50.92 69.95 C-50.93 65.63 -50.93 61.31 -50.91 56.99 C-50.91 55.44 -50.91 53.88 -50.92 52.32 C-51.03 36.72 -48.02 24.88 -37.41 13.25 C-26.19 2.72 -15.03 -0.06 0 0 Z M77.93 15.27 C63.92 15.31 49.9 15.37 35.89 15.47 C31.85 15.49 27.81 15.52 23.77 15.53 C19.24 15.54 14.71 15.57 10.18 15.62 C8.57 15.64 6.97 15.65 5.36 15.65 C-3 15.65 -10.05 15.94 -17.41 20.25 C-18.74 20.92 -20.08 21.59 -21.41 22.25 C-21.41 22.91 -21.41 23.57 -21.41 24.25 C-21.97 24.46 -22.53 24.66 -23.1 24.88 C-29.19 28.5 -32.21 34.71 -33.98 41.38 C-34.6 45.46 -34.59 49.48 -34.62 53.6 C-34.63 54.55 -34.64 55.5 -34.65 56.47 C-34.68 59.66 -34.7 62.84 -34.73 66.03 C-34.75 68.32 -34.77 70.6 -34.79 72.89 C-34.84 79.15 -34.89 85.41 -34.94 91.68 C-34.97 95.65 -35 99.62 -35.03 103.59 C-35.51 163.49 -35.57 223.38 -35.54 283.28 C-35.54 294.12 -35.54 304.97 -35.54 315.81 C-35.55 328.7 -35.55 341.58 -35.55 354.47 C-35.55 355.83 -35.55 357.2 -35.55 358.57 C-35.55 359.24 -35.55 359.91 -35.55 360.6 C-35.55 365.28 -35.55 369.96 -35.55 374.63 C-35.55 380.85 -35.55 387.07 -35.55 393.29 C-35.54 395.55 -35.54 397.82 -35.55 400.09 C-35.55 403.19 -35.55 406.28 -35.54 409.37 C-35.54 410.26 -35.55 411.16 -35.55 412.07 C-35.51 423.97 -33.22 432.29 -25.41 441.66 C-13.95 452.99 1.76 451.87 16.71 451.9 C18.91 451.91 21.1 451.93 23.3 451.96 C29.18 452.01 35.06 452.03 40.94 452.05 C45.81 452.07 50.69 452.1 55.57 452.13 C87.99 452.34 120.41 452.26 152.84 451.88 C154.22 451.86 154.22 451.86 155.63 451.84 C160.87 451.78 166.11 451.72 171.35 451.64 C172.92 451.62 174.49 451.59 176.06 451.57 C178.17 451.54 180.29 451.51 182.4 451.47 C183.58 451.45 184.76 451.44 185.97 451.42 C188.51 451.55 188.51 451.55 189.59 450.25 C191.06 450.16 192.54 450.13 194.02 450.14 C195.46 450.14 195.46 450.14 196.94 450.14 C198.54 450.14 198.54 450.14 200.18 450.15 C201.87 450.15 201.87 450.15 203.6 450.16 C207.41 450.16 211.22 450.17 215.03 450.19 C217.75 450.19 220.47 450.2 223.19 450.2 C229.06 450.21 234.94 450.22 240.81 450.24 C250.09 450.26 259.37 450.27 268.65 450.29 C271.82 450.29 275 450.29 278.17 450.3 C279.36 450.3 279.36 450.3 280.57 450.3 C289.61 450.31 298.64 450.33 307.68 450.34 C308.51 450.34 309.33 450.34 310.18 450.35 C323.57 450.37 336.95 450.4 350.34 450.43 C364.07 450.46 377.81 450.48 391.54 450.49 C400.02 450.5 408.49 450.52 416.97 450.55 C422.77 450.57 428.58 450.57 434.39 450.57 C437.75 450.57 441.1 450.58 444.45 450.6 C448.09 450.61 451.72 450.61 455.36 450.61 C456.42 450.62 457.47 450.62 458.57 450.63 C463.97 450.6 467.96 450.39 472.59 447.25 C472.92 446.59 473.25 445.93 473.59 445.25 C475.57 444.52 477.57 443.85 479.59 443.25 C476.97 445.37 474.39 447.38 471.59 449.25 C516.48 449.27 561.38 449.29 606.28 449.32 C607.16 449.32 608.03 449.32 608.94 449.32 C703.06 449.36 797.19 449.4 891.31 449.42 C893.4 449.42 895.49 449.42 897.58 449.42 C941.46 449.43 985.34 449.45 1029.22 449.46 C1051.26 449.46 1073.3 449.47 1095.34 449.47 C1098.66 449.47 1101.99 449.47 1105.31 449.47 C1156.52 449.49 1207.72 449.5 1258.93 449.53 C1260.03 449.53 1261.13 449.53 1262.26 449.53 C1280.02 449.54 1297.77 449.55 1315.53 449.56 C1366.66 449.58 1417.79 449.61 1468.92 449.62 C1470.5 449.62 1470.5 449.62 1472.11 449.62 C1495.18 449.62 1518.26 449.63 1541.33 449.63 C1550.61 449.63 1559.9 449.63 1569.18 449.63 C1570.2 449.63 1571.21 449.63 1572.26 449.63 C1605.02 449.64 1637.77 449.65 1670.52 449.68 C1703.51 449.7 1736.5 449.71 1769.48 449.71 C1774.04 449.71 1778.6 449.7 1783.15 449.7 C1784.04 449.7 1784.94 449.7 1785.86 449.7 C1800.01 449.7 1814.17 449.71 1828.33 449.73 C1842.24 449.75 1856.15 449.75 1870.06 449.74 C1878.22 449.73 1886.38 449.74 1894.54 449.76 C1900.6 449.77 1906.65 449.76 1912.7 449.75 C1915.14 449.75 1917.58 449.75 1920.01 449.76 C1923.32 449.78 1926.62 449.76 1929.92 449.75 C1930.87 449.76 1931.81 449.77 1932.78 449.78 C1941.85 449.68 1950.07 446.87 1956.71 440.53 C1964.86 430.64 1966.61 420.61 1966.45 408.16 C1966.45 406.59 1966.46 405.01 1966.47 403.43 C1966.49 399.14 1966.47 394.84 1966.44 390.55 C1966.42 385.9 1966.43 381.25 1966.45 376.61 C1966.46 367.52 1966.44 358.43 1966.41 349.35 C1966.37 338.76 1966.37 328.17 1966.37 317.58 C1966.37 298.69 1966.33 279.8 1966.28 260.91 C1966.23 242.59 1966.2 224.26 1966.2 205.94 C1966.2 204.81 1966.2 203.68 1966.2 202.52 C1966.2 201.39 1966.2 200.27 1966.2 199.1 C1966.2 196.83 1966.2 194.56 1966.2 192.29 C1966.2 191.17 1966.19 190.06 1966.19 188.9 C1966.19 171.42 1966.17 153.95 1966.14 136.47 C1966.13 130.14 1966.12 123.81 1966.12 117.48 C1966.11 107.44 1966.1 97.41 1966.06 87.37 C1966.05 82.79 1966.04 78.2 1966.04 73.62 C1966.04 69.42 1966.03 65.22 1966 61.02 C1966 59.5 1966 57.99 1966 56.47 C1966.03 43.76 1964.54 34.71 1955.59 25.25 C1951.59 21.6 1951.59 21.6 1946.59 20.25 C1946.59 19.59 1946.59 18.93 1946.59 18.25 C1941.78 15.76 1937.25 15.97 1931.98 16 C1931 15.99 1930.02 15.99 1929.01 15.99 C1925.7 15.98 1922.38 15.98 1919.07 15.99 C1916.68 15.99 1914.28 15.98 1911.88 15.98 C1906.63 15.97 1901.39 15.97 1896.14 15.97 C1888.28 15.97 1880.43 15.97 1872.57 15.96 C1859.16 15.94 1845.76 15.94 1832.35 15.94 C1818.75 15.94 1805.15 15.93 1791.55 15.92 C1790.69 15.92 1789.83 15.92 1788.95 15.92 C1784.57 15.91 1780.19 15.91 1775.81 15.91 C1744 15.88 1712.2 15.87 1680.4 15.86 C1648.65 15.84 1616.9 15.83 1585.14 15.81 C1584.15 15.81 1583.16 15.81 1582.14 15.81 C1573.08 15.8 1564.02 15.8 1554.97 15.79 C1532.42 15.78 1509.86 15.76 1487.31 15.75 C1486.29 15.75 1485.26 15.75 1484.2 15.75 C1434.09 15.72 1383.99 15.7 1333.88 15.67 C1266.25 15.64 1198.63 15.61 1131 15.57 C1127.84 15.57 1124.67 15.57 1121.5 15.57 C1102.57 15.55 1083.64 15.54 1064.71 15.53 C1019.02 15.5 973.32 15.48 927.63 15.45 C926.62 15.45 925.6 15.45 924.55 15.45 C825.85 15.4 727.15 15.35 535.6 15.28 C502 15.26 468.39 15.25 434.79 15.24 C434.08 15.24 433.37 15.24 432.64 15.24 C424.96 15.23 417.29 15.23 409.61 15.22 C364.03 15.2 318.45 15.19 272.87 15.18 C268.72 15.17 264.57 15.17 260.43 15.17 C259.42 15.17 258.41 15.17 257.37 15.17 C243.74 15.17 230.12 15.16 216.49 15.16 C174.13 15.13 131.77 15.13 89.41 15.24 C85.58 15.25 81.76 15.26 77.93 15.27 Z " fill="#3674F5" transform="translate(120.41378676891327,127.74815100431442)"/>
<path d="M0 0 C0.96 -0.02 1.93 -0.04 2.92 -0.06 C14.07 -0.12 22.89 3.97 31 11.56 C37.44 18.46 38.94 24.24 38.63 33.71 C37.49 44.33 32.87 51.39 24.94 58.25 C20.77 59.8 16.65 59.48 12.25 59.25 C11.08 57.54 11.08 57.54 10.25 55.25 C11.26 52.99 11.26 52.99 12.94 50.56 C17.94 42.75 20.35 35.6 19.25 26.25 C18.01 20.66 16.16 17.44 11.25 14.25 C10.26 13.59 9.27 12.93 8.25 12.25 C-2.63 10.81 -11.51 13.76 -20.38 19.94 C-43.34 37.64 -57.7 65.78 -62.21 94.18 C-62.51 96.88 -62.66 99.54 -62.75 102.25 C-62.79 103.44 -62.83 104.64 -62.87 105.87 C-63.12 120.63 -61.25 135.46 -50.57 146.57 C-43.64 152.98 -36.9 155.84 -27.36 155.56 C-11.57 153.69 1 146.13 11.25 134.25 C11.71 133.72 12.16 133.2 12.64 132.66 C18.99 125.19 22.14 119.71 22.21 109.61 C22.37 95.83 29.49 82.4 39 72.69 C46.05 65.9 53.6 61.05 63.62 60.62 C69.68 60.96 73.05 62.83 77.12 67.31 C78.25 69.25 78.25 69.25 78.25 72.25 C78.91 72.25 79.57 72.25 80.25 72.25 C80.59 71.38 80.59 71.38 80.94 70.5 C82.67 67.53 84.33 66.07 87.25 64.25 C90.63 63.7 92.93 63.57 96.03 65.17 C97.69 66.38 97.69 66.38 100.25 69.25 C100.72 73.79 99.8 77.05 98.12 81.25 C95.73 87.67 93.79 94.14 92 100.75 C91.74 101.69 91.48 102.64 91.22 103.61 C89.58 109.72 88.1 115.63 88.12 122 C88.12 122.76 88.12 123.52 88.12 124.3 C88.13 126.33 88.13 126.33 89.25 128.25 C91.54 128.67 91.54 128.67 94.25 128.25 C97.87 124.98 100.87 121.37 103.81 117.5 C104.56 116.54 105.3 115.57 106.07 114.58 C110.7 107.52 112.91 100.51 114.38 92.25 C114.69 90.56 115 88.87 115.32 87.19 C115.47 86.37 115.63 85.55 115.78 84.71 C117.2 77.23 118.29 72.18 123.25 66.25 C127 63.75 128.81 63.71 133.25 64.25 C136.25 66.19 136.25 66.19 138.25 69.25 C138.43 72.36 137.83 75.2 137.25 78.25 C136.89 80.91 136.57 83.58 136.25 86.25 C136.63 85.77 137 85.29 137.39 84.8 C154.46 63.27 154.46 63.27 161.62 61.75 C166.21 61.51 169.67 62.2 173.25 65.25 C176.58 69.04 176.59 72.47 176.53 77.28 C175.99 82.98 174.12 88.32 172.38 93.75 C167.3 109.19 167.3 109.19 166.25 125.25 C166.91 126.24 167.57 127.23 168.25 128.25 C172.5 127.76 175.3 125.15 178.25 122.25 C180.01 120 181.51 117.63 183 115.19 C183.39 114.58 183.77 113.96 184.17 113.33 C185.22 111.65 186.24 109.95 187.25 108.25 C187.86 107.31 187.86 107.31 188.49 106.35 C189.73 102.92 189.6 99.36 189.69 95.75 C190.09 86.01 190.71 75.98 197.25 68.25 C201.25 65.25 201.25 65.25 211.25 65.25 C211.25 84.39 211.25 103.53 211.25 123.25 C211.91 123.25 212.57 123.25 213.25 123.25 C213.53 122.66 213.81 122.08 214.1 121.47 C215.16 119.42 216.31 117.6 217.64 115.71 C218.1 115.05 218.56 114.39 219.03 113.72 C219.52 113.03 220 112.34 220.5 111.62 C225.36 104.61 225.36 104.61 230.06 97.5 C230.78 96.39 230.78 96.39 231.52 95.27 C232.49 93.25 232.49 93.25 231.54 91.23 C231.12 90.58 230.69 89.92 230.25 89.25 C229.85 88.6 229.45 87.95 229.03 87.29 C228.18 85.97 227.32 84.66 226.47 83.35 C222.83 77.08 222.52 71.38 223.25 64.25 C224.74 58.88 227.89 54.75 232.26 51.32 C235.9 49.36 239.27 49.41 243.25 50.25 C246.86 51.99 248.73 53.56 251.12 56.75 C254.71 67.9 251.04 77.52 246.09 87.62 C245.81 88.16 245.53 88.7 245.25 89.25 C251.73 89.79 257.05 89.46 262.25 85.25 C264.44 82.59 266.38 79.84 268.32 77 C273.59 69.48 280.31 63.83 289.31 61.44 C290.28 61.38 291.25 61.31 292.25 61.25 C292.89 61.19 293.53 61.13 294.18 61.06 C299.38 60.75 302.16 61.81 306.25 65.25 C308.25 67.52 309.9 69.55 311.25 72.25 C311.86 71.51 311.86 71.51 312.49 70.75 C313.03 70.11 313.57 69.47 314.12 68.81 C314.66 68.17 315.19 67.54 315.74 66.88 C317.25 65.25 317.25 65.25 319.25 64.25 C321.31 64.27 321.31 64.27 323.69 64.5 C324.86 64.6 324.86 64.6 326.06 64.7 C328.83 65.39 329.73 65.81 331.25 68.25 C331.79 74.05 330.94 77.84 328.62 83.25 C325.82 90.22 323.73 97.28 321.88 104.56 C321.61 105.55 321.35 106.54 321.08 107.56 C319.46 114.06 318.37 120.55 319.25 127.25 C319.91 127.91 320.57 128.57 321.25 129.25 C324.09 129.05 325.77 128.62 328.02 126.86 C333.18 120.87 336.73 114.28 340.25 107.25 C341.57 107.58 342.89 107.91 344.25 108.25 C344.91 117.1 339.4 126.02 333.94 132.75 C328.26 138.6 322.36 142.54 314.06 143 C308.98 142.74 306.16 141.5 302.55 137.95 C299.93 134.52 299.25 132.67 299.25 128.25 C298.59 128.93 297.93 129.61 297.25 130.31 C285.03 142.54 285.03 142.54 276.44 142.56 C275.23 142.58 274.03 142.6 272.79 142.61 C267.03 142.02 263.24 139.79 259.5 135.44 C258.93 134.79 258.36 134.15 257.77 133.48 C253.9 127.79 253.91 122.01 253.94 115.38 C253.92 114.52 253.91 113.66 253.89 112.77 C253.88 106.92 254.89 102.61 257.25 97.25 C251.91 96.3 246.48 95.44 241.25 97.25 C237.09 100.78 234.94 106.19 232.51 110.97 C230.41 114.79 227.79 118.18 225.12 121.62 C224.62 122.29 224.11 122.95 223.58 123.64 C222.6 124.92 221.61 126.2 220.62 127.48 C219.37 129.1 218.13 130.73 216.89 132.37 C216.2 133.26 215.52 134.15 214.81 135.06 C214.24 135.81 213.66 136.56 213.07 137.33 C209.95 140.62 207.22 142.11 202.75 142.75 C198.28 142.11 196.99 140.77 194.25 137.25 C192.32 133.23 191.7 129.35 191.12 124.94 C190.96 123.68 190.79 122.43 190.62 121.14 C190.5 120.18 190.37 119.23 190.25 118.25 C189.62 119.18 188.99 120.11 188.34 121.07 C176.03 138.98 176.03 138.98 165.25 142.25 C159.94 142.99 155.67 142.39 151.25 139.25 C146.28 132.93 144.57 127.3 145.25 119.25 C146 114.96 146.98 110.74 148 106.5 C148.38 104.84 148.38 104.84 148.77 103.16 C150.52 95.7 152.7 88.47 155.25 81.25 C142.9 87.6 134.92 101.43 130.25 114.25 C128.78 119.3 127.51 124.39 126.42 129.53 C124.8 136.69 124.8 136.69 121.7 139.86 C117.57 142.21 115.09 142.67 110.25 142.25 C107.88 140.81 107.88 140.81 106.25 138.25 C105.64 135.26 105.38 132.3 105.25 129.25 C104.69 129.85 104.14 130.46 103.56 131.08 C97.14 137.8 92.19 142.27 82.69 142.88 C77.76 142.68 75.07 141.46 71.62 137.98 C69.29 135.04 67.25 132.09 67.25 128.25 C66.59 128.25 65.93 128.25 65.25 128.25 C64.85 129.13 64.85 129.13 64.45 130.03 C61.83 134.88 57.73 138.35 53.06 141.19 C46.69 142.96 39.41 143.79 33.31 140.69 C29.73 137.83 27.77 135.06 25.25 131.25 C24.59 130.92 23.93 130.59 23.25 130.25 C23 130.96 22.75 131.67 22.5 132.4 C16.18 146.86 2.01 159.34 -11.75 166.25 C-14.97 167.5 -18.17 168.59 -21.48 169.56 C-23.7 170.04 -23.7 170.04 -24.75 171.25 C-41.54 172.94 -55.83 171.01 -69.36 160.33 C-80.42 150.71 -88.14 136.9 -89.75 122.25 C-91.99 89.94 -81.06 57.12 -59.81 32.59 C-59.13 31.82 -58.45 31.05 -57.75 30.25 C-57.21 29.57 -56.68 28.89 -56.12 28.19 C-50.68 21.42 -43.7 16.38 -36.75 11.25 C-36.03 10.71 -35.3 10.17 -34.56 9.61 C-24.34 2.62 -12.13 0.06 0 0 Z " fill="#F6FAFD" transform="translate(219.75,271.75)"/>
<path d="M0 0 C40 0 40 0 48.69 7.88 C50.08 10.37 51.47 12.86 52.7 15.44 C54.89 19.75 57.85 23.46 60.75 27.31 C61.83 28.82 62.91 30.33 63.99 31.84 C67.34 36.5 70.84 41.03 74.36 45.56 C77.52 49.65 80.57 53.83 83.62 58 C89.45 65.95 95.39 73.81 101.41 81.62 C102.03 82.44 102.66 83.25 103.31 84.1 C103.85 84.8 104.4 85.51 104.96 86.24 C108.06 90.43 111.01 94.73 114 99 C114.33 66.33 114.66 33.66 115 0 C128.2 0 141.4 0 155 0 C155 54.12 155 108.24 155 164 C116 164 116 164 108.5 157.25 C107.36 155 106.21 152.75 105.2 150.44 C102.96 145.88 99.68 142.05 96.56 138.06 C95.28 136.36 94.01 134.66 92.73 132.96 C88.76 127.67 84.73 122.41 80.71 117.15 C74.05 108.47 67.51 99.7 60.97 90.93 C60.46 90.25 59.95 89.57 59.43 88.87 C58.49 87.62 57.56 86.36 56.62 85.11 C51.54 78.3 46.25 71.69 41 65 C40.67 97.67 40.34 130.34 40 164 C26.8 164 13.6 164 0 164 C0 109.88 0 55.76 0 0 Z " fill="#FAFAFB" transform="translate(1181,283)"/>
<path d="M0 0 C13.86 0 27.72 0 42 0 C45.64 7.29 49.16 14.42 52.29 21.91 C52.87 23.27 52.87 23.27 53.46 24.65 C54.28 26.59 55.1 28.54 55.91 30.48 C58.11 35.7 60.33 40.92 62.54 46.14 C62.99 47.21 63.44 48.27 63.91 49.37 C68.57 60.38 73.31 71.35 78.06 82.31 C84.35 96.84 90.59 111.38 96.72 125.97 C98.14 129.32 99.57 132.68 101 136.03 C101.5 137.2 102 138.38 102.52 139.59 C103.47 141.83 104.43 144.06 105.39 146.29 C105.82 147.3 106.25 148.31 106.69 149.35 C107.25 150.66 107.25 150.66 107.82 152 C109.37 155.95 110.66 159.98 112 164 C98.14 164 84.28 164 70 164 C63.57 148.16 63.57 148.16 57 132 C33.57 132 10.14 132 -14 132 C-17.05 139.32 -20.07 146.63 -23 154 C-24.32 157.3 -25.64 160.6 -27 164 C-40.53 164 -54.06 164 -68 164 C-64.63 153.88 -64.63 153.88 -63.13 150.39 C-62.8 149.61 -62.48 148.84 -62.14 148.04 C-61.8 147.26 -61.47 146.49 -61.12 145.69 C-60.46 144.13 -59.8 142.57 -59.13 141.01 C-58.79 140.21 -58.45 139.4 -58.09 138.58 C-56.91 135.79 -55.75 133 -54.59 130.21 C-51.46 122.69 -48.28 115.2 -45.11 107.71 C-42.42 101.37 -39.76 95.03 -37.11 88.67 C-30.58 72.99 -30.58 72.99 -27.94 68 C-26.11 64.49 -24.86 60.86 -23.56 57.12 C-22.12 52.96 -20.62 49.02 -18.56 45.12 C-15.96 40.18 -14.08 35.06 -12.16 29.83 C-10.31 24.78 -8.27 19.87 -6 15 C-5.29 13.44 -4.58 11.88 -3.88 10.31 C-3.41 9.29 -3.41 9.29 -2.93 8.24 C-1.81 5.55 -0.92 2.77 0 0 Z " fill="#FAFAFA" transform="translate(1028,283)"/>
<path d="M0 0 C1.77 0 3.54 0.01 5.32 0.02 C6.25 0.02 7.18 0.02 8.14 0.02 C11.12 0.03 14.11 0.04 17.09 0.05 C19.11 0.06 21.13 0.06 23.15 0.06 C28.11 0.08 33.07 0.09 38.03 0.11 C48.56 23.62 58.84 47.22 68.65 71.04 C70.57 75.69 72.56 80.3 74.66 84.88 C76.46 88.81 78.1 92.74 79.59 96.8 C81.2 101.06 82.95 105.07 85.06 109.09 C86.67 112.46 87.85 115.99 89.1 119.51 C90.76 124.14 92.73 128.56 94.97 132.93 C96.88 136.69 98.43 140.53 99.95 144.46 C101.47 148.21 103.22 151.84 104.98 155.47 C106.03 158.11 106.03 158.11 107.03 164.11 C93.17 164.11 79.31 164.11 65.03 164.11 C63.05 158.83 61.07 153.55 59.03 148.11 C57.04 143.38 57.04 143.38 55.01 138.66 C54.03 136.11 54.03 136.11 53.03 131.11 C29.27 131.11 5.51 131.11 -18.97 131.11 C-19.3 132.76 -19.63 134.41 -19.97 136.11 C-20.76 138.33 -21.6 140.54 -22.47 142.73 C-22.92 143.85 -23.36 144.98 -23.82 146.13 C-24.38 147.55 -24.95 148.97 -25.53 150.43 C-27.33 154.94 -29.12 159.46 -30.97 164.11 C-44.5 164.11 -58.03 164.11 -71.97 164.11 C-68.77 153.45 -68.77 153.45 -66 148.24 C-64.79 145.75 -63.88 143.23 -62.97 140.61 C-61.85 137.42 -60.69 134.41 -59.09 131.43 C-57.01 127.46 -55.51 123.32 -53.97 119.11 C-52.22 114.34 -50.42 109.75 -48.01 105.26 C-46.77 102.71 -45.79 100.11 -44.8 97.45 C-41.95 89.97 -38.85 82.6 -35.72 75.23 C-33.97 71.09 -32.22 66.95 -30.47 62.8 C-30.1 61.94 -29.74 61.07 -29.36 60.18 C-25.11 50.09 -20.91 39.98 -16.72 29.86 C-16.36 28.99 -16 28.12 -15.62 27.22 C-14.59 24.72 -13.55 22.22 -12.52 19.72 C-12.04 18.57 -12.04 18.57 -11.55 17.39 C-9.54 12.53 -7.57 7.65 -5.67 2.74 C-4.28 -0.49 -4 0.11 0 0 Z " fill="#FAFAFA" transform="translate(1621.968994140625,282.886474609375)"/>
<path d="M0 0 C0.98 0.7 1.95 1.4 2.96 2.12 C12.99 9.78 21.43 20.14 26 32 C26 32.66 26 33.32 26 34 C21.11 35 16.22 36 11.32 36.99 C9.66 37.33 7.99 37.67 6.33 38.01 C3.94 38.5 1.54 38.99 -0.86 39.47 C-1.6 39.62 -2.34 39.77 -3.1 39.93 C-10.33 41.38 -10.33 41.38 -14 41 C-15.92 39.02 -15.92 39.02 -17.75 36.38 C-24.25 27.76 -33.24 22.61 -43.82 20.41 C-58.77 18.47 -70.89 20.57 -83.52 29.07 C-91.84 35.54 -97.81 44.68 -100 55 C-100.33 58.86 -100.42 62.69 -100.44 66.56 C-100.45 67.53 -100.46 68.5 -100.47 69.5 C-100.36 78.35 -98.44 86.07 -94.06 93.81 C-93.58 94.69 -93.1 95.56 -92.6 96.46 C-85.46 107.82 -74.7 113.63 -61.94 116.75 C-47.95 117.94 -34.01 115.24 -22.8 106.23 C-19.6 103.14 -17.05 99.98 -15 96 C-6.15 96.61 2.45 98.33 11.12 100.06 C12.57 100.35 14.02 100.63 15.47 100.92 C18.98 101.61 22.49 102.3 26 103 C21.32 117.46 11.73 129.69 -1 138 C-2.03 138.72 -2.03 138.72 -3.09 139.45 C-14.49 146.88 -30.02 153.31 -43.68 153.2 C-44.38 153.19 -45.08 153.19 -45.81 153.19 C-48.02 153.18 -50.23 153.15 -52.44 153.12 C-53.95 153.11 -55.46 153.11 -56.97 153.1 C-60.64 153.08 -64.32 153.04 -68 153 C-68 152.34 -68 151.68 -68 151 C-69.02 151 -69.02 151 -70.06 150.99 C-90.52 150.18 -108.22 138.44 -122 124 C-138.61 104.44 -143.34 81.93 -142 57 C-139.97 37.17 -128.85 17.08 -113.69 4.31 C-80.29 -21.75 -34.84 -25.39 0 0 Z " fill="#FAFAFA" transform="translate(899,296)"/>
<path d="M0 0 C13.86 0 27.72 0 42 0 C44.53 5.07 46.81 9.79 48.85 15.02 C49.1 15.66 49.35 16.3 49.61 16.97 C50.43 19.06 51.25 21.16 52.06 23.25 C52.64 24.73 53.22 26.21 53.8 27.69 C54.97 30.69 56.15 33.7 57.32 36.7 C59.28 41.72 61.26 46.73 63.23 51.75 C71.26 72.12 79.14 92.56 87 113 C90.48 104.78 93.76 96.51 96.91 88.16 C97.37 86.96 97.82 85.76 98.29 84.52 C99.5 81.34 100.7 78.16 101.9 74.98 C103.08 71.85 104.27 68.71 105.46 65.58 C107.11 61.21 108.77 56.84 110.42 52.47 C113.34 44.74 116.26 37.02 119.19 29.3 C119.87 27.51 120.55 25.72 121.23 23.92 C122.07 21.72 122.9 19.51 123.74 17.3 C124.63 14.97 125.51 12.64 126.39 10.31 C126.84 9.13 127.29 7.94 127.76 6.72 C128.16 5.65 128.57 4.58 128.99 3.47 C130 1 130 1 131 0 C134.1 -0.09 137.18 -0.12 140.29 -0.1 C141.22 -0.1 142.15 -0.09 143.11 -0.09 C146.09 -0.09 149.08 -0.08 152.06 -0.06 C154.08 -0.06 156.1 -0.05 158.12 -0.05 C163.08 -0.04 168.04 -0.02 173 0 C166.68 19 166.68 19 162.95 26.06 C161.45 29.13 160.39 32.34 159.26 35.56 C157.63 40.02 155.84 44.41 154.06 48.81 C151.29 55.68 148.66 62.55 146.3 69.57 C145.21 72.43 144.02 75.15 142.73 77.93 C139.94 84.05 137.46 90.26 135.02 96.52 C134.56 97.69 134.1 98.86 133.62 100.07 C132.41 103.17 131.19 106.27 129.98 109.37 C128.78 112.45 127.57 115.53 126.37 118.61 C120.83 132.74 120.83 132.74 115.33 146.89 C114.91 147.96 114.49 149.03 114.06 150.14 C113.28 152.16 112.5 154.18 111.72 156.2 C111.37 157.08 111.03 157.97 110.67 158.88 C110.37 159.66 110.07 160.43 109.76 161.23 C109 163 109 163 108 164 C106.65 164.09 105.29 164.12 103.94 164.11 C103.08 164.11 102.22 164.11 101.33 164.11 C100.4 164.11 99.46 164.1 98.5 164.1 C97.54 164.1 96.59 164.09 95.61 164.09 C92.55 164.09 89.49 164.08 86.44 164.06 C84.37 164.06 82.3 164.05 80.24 164.05 C75.16 164.04 70.08 164.02 65 164 C64.44 162.56 64.44 162.56 63.87 161.09 C56.72 142.64 49.55 124.21 42.15 105.86 C39.36 98.93 36.6 92 33.83 85.06 C21.72 54.73 21.72 54.73 9.5 24.44 C9.24 23.8 8.98 23.16 8.72 22.5 C6.15 16.17 3.56 9.88 0.68 3.69 C0 2 0 2 0 0 Z " fill="#FAFAFA" transform="translate(1368,283)"/>
<path d="M0 0 C3.61 1.74 5.48 3.31 7.88 6.5 C11.46 17.65 7.79 27.27 2.84 37.38 C2.56 37.91 2.28 38.45 2 39 C8.48 39.54 13.8 39.21 19 35 C21.19 32.34 23.13 29.59 25.07 26.75 C30.34 19.23 37.06 13.58 46.06 11.19 C47.03 11.13 48 11.06 49 11 C49.64 10.94 50.28 10.88 50.93 10.81 C56.13 10.5 58.91 11.56 63 15 C65 17.27 66.65 19.3 68 22 C68.41 21.51 68.82 21.01 69.24 20.5 C69.78 19.86 70.32 19.22 70.88 18.56 C71.41 17.92 71.94 17.29 72.49 16.63 C74 15 74 15 76 14 C78.06 14.02 78.06 14.02 80.44 14.25 C81.22 14.32 82 14.38 82.81 14.45 C85.58 15.14 86.48 15.56 88 18 C88.54 23.8 87.69 27.59 85.38 33 C82.57 39.97 80.48 47.03 78.62 54.31 C78.23 55.8 78.23 55.8 77.83 57.31 C76.21 63.81 75.12 70.3 76 77 C76.66 77.66 77.32 78.32 78 79 C80.84 78.8 82.52 78.37 84.77 76.61 C89.93 70.62 93.48 64.03 97 57 C98.32 57.33 99.64 57.66 101 58 C101.66 66.85 96.15 75.77 90.69 82.5 C85.01 88.35 79.11 92.29 70.81 92.75 C65.73 92.49 62.91 91.25 59.3 87.7 C56.68 84.27 56 82.42 56 78 C55.34 78.68 54.68 79.36 54 80.06 C41.78 92.29 41.78 92.29 33.19 92.31 C31.98 92.33 30.78 92.35 29.54 92.36 C23.78 91.77 19.99 89.54 16.25 85.19 C15.68 84.54 15.11 83.9 14.52 83.23 C10.65 77.54 10.66 71.76 10.69 65.12 C10.67 64.27 10.66 63.41 10.64 62.52 C10.63 56.67 11.64 52.36 14 47 C8.66 46.05 3.23 45.19 -2 47 C-6.16 50.53 -8.31 55.94 -10.74 60.72 C-12.84 64.54 -15.46 67.93 -18.12 71.38 C-18.63 72.04 -19.14 72.7 -19.67 73.39 C-20.65 74.67 -21.64 75.95 -22.63 77.23 C-23.88 78.85 -25.12 80.48 -26.36 82.12 C-27.05 83.01 -27.73 83.9 -28.44 84.81 C-29.3 85.94 -29.3 85.94 -30.18 87.08 C-33.3 90.37 -36.03 91.86 -40.5 92.5 C-44.97 91.86 -46.26 90.52 -49 87 C-50.93 82.98 -51.55 79.1 -52.12 74.69 C-52.29 73.43 -52.46 72.18 -52.63 70.89 C-52.75 69.93 -52.88 68.98 -53 68 C-55.97 72.45 -55.97 72.45 -59 77 C-59.74 76.46 -60.49 75.93 -61.25 75.38 C-62.16 74.92 -63.06 74.47 -64 74 C-66.16 74.85 -66.16 74.85 -68 76 C-67.66 75.58 -67.32 75.17 -66.97 74.74 C-65.24 72.54 -63.61 70.29 -62 68 C-61.29 67 -60.58 66.01 -59.86 64.98 C-54.44 56.6 -53.24 50.18 -53.12 40.29 C-53.01 32.2 -51.29 24.26 -46 18 C-42 15 -42 15 -32 15 C-32 34.14 -32 53.28 -32 73 C-31.34 73 -30.68 73 -30 73 C-29.72 72.41 -29.44 71.83 -29.15 71.22 C-28.09 69.17 -26.94 67.35 -25.61 65.46 C-25.15 64.8 -24.69 64.14 -24.22 63.47 C-23.73 62.78 -23.25 62.09 -22.75 61.38 C-17.89 54.36 -17.89 54.36 -13.19 47.25 C-12.47 46.14 -12.47 46.14 -11.73 45.02 C-10.76 43 -10.76 43 -11.71 40.98 C-12.35 40 -12.35 40 -13 39 C-13.4 38.35 -13.8 37.7 -14.22 37.04 C-15.07 35.72 -15.93 34.41 -16.78 33.1 C-20.42 26.83 -20.73 21.13 -20 14 C-18.51 8.63 -15.36 4.5 -10.99 1.07 C-7.35 -0.89 -3.98 -0.84 0 0 Z " fill="#F5F7FD" transform="translate(463,322)"/>
<path d="M0 0 C-7.29 4.86 -14.91 4.28 -23.4 4.25 C-24.78 4.25 -26.16 4.25 -27.54 4.26 C-31.34 4.26 -35.15 4.26 -38.95 4.25 C-43.1 4.24 -47.25 4.25 -51.4 4.25 C-58.7 4.26 -66.01 4.26 -73.31 4.25 C-84.25 4.24 -95.18 4.24 -106.12 4.24 C-124.76 4.25 -143.39 4.25 -162.03 4.24 C-180.92 4.23 -199.81 4.23 -218.7 4.23 C-219.89 4.23 -221.08 4.23 -222.31 4.23 C-228.39 4.23 -234.47 4.23 -240.55 4.23 C-284.57 4.23 -328.59 4.22 -372.61 4.21 C-383.5 4.21 -394.39 4.21 -405.28 4.2 C-405.96 4.2 -406.63 4.2 -407.33 4.2 C-438.68 4.19 -470.03 4.19 -501.38 4.19 C-503.43 4.19 -505.48 4.19 -507.53 4.19 C-519.89 4.19 -532.25 4.19 -544.62 4.19 C-575.35 4.19 -606.08 4.18 -636.81 4.18 C-637.86 4.18 -637.86 4.18 -638.93 4.18 C-684.25 4.18 -729.57 4.17 -774.88 4.16 C-775.61 4.16 -776.33 4.16 -777.08 4.16 C-799.1 4.16 -821.13 4.16 -843.16 4.15 C-867.53 4.15 -891.91 4.14 -916.28 4.14 C-917.01 4.14 -917.75 4.14 -918.5 4.14 C-988.11 4.12 -1057.72 4.12 -1127.33 4.11 C-1130.28 4.11 -1133.23 4.11 -1136.18 4.11 C-1163.31 4.11 -1190.44 4.1 -1217.57 4.1 C-1218.29 4.1 -1219.02 4.1 -1219.76 4.1 C-1221.94 4.1 -1224.13 4.1 -1226.31 4.1 C-1285.32 4.1 -1344.34 4.09 -1403.35 4.08 C-1405.43 4.08 -1407.51 4.08 -1409.59 4.08 C-1477.22 4.08 -1544.85 4.07 -1784.74 4.03 C-1785.91 4.03 -1787.08 4.03 -1788.29 4.03 C-1846.86 4.02 -1905.43 4.01 -1964 4 C-1964 3.67 -1964 3.34 -1964 3 C-1962.67 3 -1962.67 3 -1961.32 3 C-1874.07 2.93 -1786.81 2.86 -1671.1 2.76 C-1669.63 2.76 -1668.15 2.75 -1666.68 2.75 C-1635.73 2.73 -1604.77 2.7 -1573.82 2.67 C-1558.25 2.66 -1542.69 2.64 -1527.12 2.63 C-1524.78 2.63 -1522.43 2.63 -1520.08 2.62 C-1484.21 2.59 -1448.34 2.56 -1412.46 2.53 C-1411.7 2.53 -1410.94 2.53 -1410.15 2.53 C-1397.85 2.52 -1385.55 2.51 -1373.26 2.5 C-1337.56 2.47 -1301.87 2.44 -1266.17 2.41 C-1265.06 2.41 -1265.06 2.41 -1263.92 2.41 C-1247.54 2.39 -1231.16 2.38 -1214.78 2.37 C-1208.17 2.36 -1201.57 2.35 -1194.97 2.35 C-1193.88 2.35 -1193.88 2.35 -1192.78 2.35 C-1171.4 2.33 -1150.02 2.31 -1128.64 2.29 C-1095.65 2.27 -1062.67 2.24 -1029.69 2.21 C-1028.39 2.2 -1027.1 2.2 -1025.77 2.2 C-949.8 2.12 -873.83 1.87 -797.86 1.45 C-738.9 1.12 -679.95 0.9 -621 0.92 C-619.69 0.92 -619.69 0.92 -618.35 0.92 C-597.13 0.92 -575.91 0.94 -554.69 0.96 C-533.93 0.98 -513.17 0.98 -492.41 0.99 C-483.56 0.99 -474.71 1 -465.86 1 C-464.88 1 -463.9 1 -462.9 1 C-440.08 1.01 -417.26 1.02 -394.45 1.03 C-392.97 1.04 -392.97 1.04 -391.45 1.04 C-368.19 1.05 -344.93 1.06 -321.67 1.08 C-319.61 1.08 -317.56 1.08 -315.5 1.08 C-313.45 1.08 -311.39 1.09 -309.33 1.09 C-306.25 1.09 -303.17 1.09 -300.08 1.09 C-298.03 1.1 -295.98 1.1 -293.92 1.1 C-260.04 1.12 -226.16 1.14 -192.27 1.15 C-187.51 1.15 -182.74 1.15 -177.98 1.15 C-177.04 1.15 -176.11 1.15 -175.14 1.15 C-160.14 1.16 -145.14 1.17 -130.14 1.18 C-115.19 1.2 -100.25 1.21 -85.31 1.21 C-76.45 1.21 -67.6 1.21 -58.74 1.23 C-52.84 1.24 -46.93 1.24 -41.03 1.24 C-37.67 1.23 -34.3 1.24 -30.94 1.24 C-27.32 1.25 -23.71 1.25 -20.09 1.24 C-18.52 1.25 -18.52 1.25 -16.92 1.26 C-11.42 1.24 -4.85 -1.62 0 0 Z " fill="#826EFA" transform="translate(2072,591)"/>
<path d="M0 0 C1.32 -0 2.64 -0.01 4 -0.01 C7.67 -0.02 11.33 -0.01 15 -0.01 C18.99 -0 22.98 -0.01 26.96 -0.01 C33.96 -0.02 40.95 -0.02 47.94 -0.01 C58.33 -0.01 68.73 -0.01 79.12 -0.02 C97.69 -0.03 116.25 -0.03 134.82 -0.02 C151.06 -0.01 167.3 -0.01 183.54 -0.02 C184.62 -0.02 185.69 -0.02 186.8 -0.02 C191.17 -0.02 195.54 -0.02 199.91 -0.02 C240.91 -0.02 281.91 -0.02 322.91 -0.01 C359.36 0 395.82 0 432.27 -0.01 C473.2 -0.02 514.14 -0.02 555.07 -0.02 C559.43 -0.02 563.79 -0.02 568.15 -0.02 C569.22 -0.02 570.29 -0.02 571.4 -0.02 C587.64 -0.01 603.88 -0.02 620.11 -0.02 C638.57 -0.03 657.02 -0.03 675.47 -0.01 C685.81 -0.01 696.15 -0.01 706.49 -0.02 C713.38 -0.02 720.27 -0.02 727.16 -0.01 C731.1 -0 735.04 -0 738.97 -0.01 C743.2 -0.02 747.42 -0.01 751.65 0 C752.89 -0 754.13 -0.01 755.4 -0.01 C757.08 -0.01 757.08 -0.01 758.79 0 C760.24 0 760.24 0 761.72 0 C764.01 0.25 764.01 0.25 766.01 2.25 C692.17 2.27 618.32 2.28 544.48 2.29 C542.84 2.29 542.84 2.29 541.17 2.29 C517.44 2.3 493.7 2.3 469.97 2.3 C458.33 2.3 446.7 2.31 435.06 2.31 C433.32 2.31 433.32 2.31 431.55 2.31 C393.98 2.31 356.41 2.32 318.85 2.33 C280.25 2.34 241.66 2.34 203.07 2.35 C197.63 2.35 192.18 2.35 186.74 2.35 C185.13 2.35 185.13 2.35 183.49 2.35 C166.2 2.35 148.92 2.35 131.64 2.36 C114.28 2.36 96.93 2.37 79.57 2.37 C69.24 2.36 58.92 2.37 48.6 2.37 C41.71 2.38 34.83 2.38 27.94 2.37 C24.01 2.37 20.08 2.37 16.15 2.38 C11.93 2.38 7.7 2.38 3.48 2.37 C2.25 2.38 1.01 2.38 -0.26 2.38 C-1.94 2.38 -1.94 2.38 -3.65 2.38 C-4.62 2.38 -5.58 2.38 -6.58 2.38 C-8.99 2.25 -8.99 2.25 -11.99 1.25 C-12.32 1.91 -12.65 2.57 -12.99 3.25 C-15.49 3.88 -15.49 3.88 -18.55 4.38 C-20.07 4.63 -20.07 4.63 -21.62 4.88 C-22.79 5.07 -22.79 5.07 -23.99 5.25 C-23.99 6.24 -23.99 7.23 -23.99 8.25 C-25.64 8.25 -27.29 8.25 -28.99 8.25 C-29.32 9.24 -29.65 10.23 -29.99 11.25 C-30.98 10.92 -31.97 10.59 -32.99 10.25 C-23.01 1.52 -12.87 -0.05 0 0 Z " fill="#04A7F6" transform="translate(119.99044513702393,127.74831771850586)"/>
<path d="M0 0 C0.66 0 1.32 0 2 0 C4.17 5.14 6.34 10.27 8.51 15.41 C9.24 17.15 9.98 18.89 10.71 20.63 C14.36 29.26 17.99 37.89 21.52 46.56 C22 47.74 22.49 48.91 22.98 50.13 C24 53 24 53 24 56 C9.15 56 -5.7 56 -21 56 C-20.29 51.75 -19.77 49.02 -18.18 45.23 C-17.82 44.37 -17.47 43.51 -17.1 42.62 C-16.73 41.75 -16.37 40.89 -16 40 C-15.36 38.4 -14.71 36.8 -14.08 35.19 C-9.38 23.46 -4.69 11.73 0 0 Z " fill="#091526" transform="translate(1048,328)"/>
<path d="M0 0 C0.66 0 1.32 0 2 0 C4.49 6.08 6.98 12.17 9.47 18.25 C10.32 20.32 11.16 22.38 12.01 24.45 C13.23 27.43 14.45 30.41 15.67 33.4 C16.04 34.31 16.42 35.22 16.8 36.16 C17.52 37.91 18.23 39.66 18.94 41.41 C19.68 43.21 20.42 45.01 21.16 46.81 C21.53 47.71 21.89 48.61 22.27 49.54 C22.6 50.35 22.93 51.16 23.28 51.99 C24 54 24 54 24 56 C9.15 56 -5.7 56 -21 56 C-19.64 49.87 -18.26 44.59 -15.92 38.89 C-15.47 37.78 -15.47 37.78 -15.02 36.66 C-14.08 34.33 -13.14 32.01 -12.19 29.69 C-11.56 28.14 -10.94 26.6 -10.32 25.06 C-6.94 16.68 -3.5 8.33 0 0 Z " fill="#0A1729" transform="translate(1638,328)"/>
<path d="M0 0 C1.94 1.12 1.94 1.12 3 3 C3.5 6.38 3.5 6.38 3 10 C0.5 12.75 0.5 12.75 -2 15 C-2 15.99 -2 16.98 -2 18 C-0.35 18.33 1.3 18.66 3 19 C2.48 24.98 1.2 29.92 -1.12 35.44 C-1.43 36.18 -1.74 36.92 -2.06 37.68 C-5.23 44.99 -9.2 51.56 -16 56 C-21.12 56.63 -21.12 56.63 -23.75 54.75 C-28.66 47.87 -27.82 39.12 -27 31 C-24.85 19.16 -19.03 7 -9 0 C-5.85 -1.57 -3.36 -0.71 0 0 Z " fill="#0B89E9" transform="translate(290,345)"/>
<path d="M0 0 C2.38 1.56 2.38 1.56 4 4 C4.56 7.44 4.56 7.44 4 11 C1.56 13.75 1.56 13.75 -1 16 C-1.33 16.99 -1.66 17.98 -2 19 C0.31 19.33 2.62 19.66 5 20 C2.81 32.48 -2.11 47.24 -12.02 55.73 C-14.88 57.57 -16.68 57.55 -20 57 C-25.22 51.78 -25.35 46.78 -25.39 39.68 C-25.11 26.45 -20.03 13.85 -11.21 4 C-7.67 0.63 -5.04 -1.12 0 0 Z " fill="#3951F6" transform="translate(520,344)"/>
<path d="M0 0 C3.14 1.54 6.09 3.06 9 5 C9 5.66 9 6.32 9 7 C9.99 7.33 10.98 7.66 12 8 C13.32 10.2 14.46 12.32 15.56 14.62 C15.87 15.23 16.17 15.83 16.48 16.46 C20.85 25.38 21.29 33.11 21.25 42.97 C21.25 44.4 21.25 45.83 21.25 47.27 C21.26 51.19 21.25 55.12 21.25 59.05 C21.24 63.29 21.25 67.53 21.25 71.77 C21.25 80.08 21.25 88.39 21.24 96.7 C21.23 106.4 21.23 116.09 21.23 125.79 C21.23 143.11 21.22 160.43 21.21 177.75 C21.19 194.51 21.18 211.27 21.19 228.04 C21.19 229.58 21.19 229.58 21.19 231.16 C21.19 232.7 21.19 232.7 21.19 234.28 C21.19 253.4 21.18 272.52 21.17 291.65 C21.17 298.38 21.17 305.12 21.17 311.86 C21.17 320.1 21.16 328.33 21.15 336.57 C21.15 340.77 21.14 344.96 21.15 349.15 C21.15 363.66 21.14 378.17 20.59 392.67 C20.56 393.62 20.53 394.56 20.49 395.53 C20.04 405.66 18.6 415.76 11.14 423.24 C7.06 426.6 2.79 429.75 -2 432 C-2.99 431.67 -3.98 431.34 -5 431 C-4.2 430.52 -3.41 430.03 -2.59 429.53 C4.01 425.36 8.98 421.7 13 415 C13.55 414.1 13.55 414.1 14.1 413.18 C17.88 405.92 17.56 398.49 17.5 390.51 C17.51 388.94 17.51 387.37 17.52 385.8 C17.53 381.49 17.52 377.18 17.51 372.88 C17.5 368.23 17.51 363.58 17.52 358.93 C17.53 349.82 17.52 340.72 17.51 331.61 C17.49 321.01 17.5 310.41 17.5 299.8 C17.51 280.88 17.49 261.96 17.47 243.03 C17.44 224.68 17.44 206.32 17.45 187.97 C17.46 167.97 17.46 147.98 17.44 127.98 C17.44 125.85 17.44 123.72 17.44 121.58 C17.44 120.54 17.44 119.49 17.44 118.41 C17.43 111.02 17.44 103.63 17.44 96.24 C17.44 87.23 17.44 78.22 17.42 69.22 C17.41 64.62 17.4 60.03 17.41 55.43 C17.42 51.22 17.41 47.02 17.39 42.81 C17.39 41.29 17.39 39.77 17.4 38.25 C17.45 25.68 16.09 16.25 7 7 C4.45 5.08 1.83 3.47 -1 2 C-0.67 1.34 -0.34 0.68 0 0 Z " fill="#9525F5" transform="translate(2068,146)"/>
<path d="M0 0 C0.33 0 0.66 0 1 0 C1.11 49.86 1.2 99.72 1.26 149.58 C1.26 155.47 1.27 161.36 1.27 167.25 C1.28 168.42 1.28 169.59 1.28 170.8 C1.3 189.77 1.34 208.75 1.39 227.72 C1.43 247.2 1.46 266.67 1.47 286.14 C1.48 298.15 1.5 310.17 1.54 322.18 C1.57 330.42 1.57 338.66 1.57 346.9 C1.56 351.66 1.57 356.41 1.6 361.16 C1.62 365.52 1.62 369.87 1.6 374.23 C1.6 375.8 1.61 377.37 1.62 378.94 C1.76 392.83 -1.4 403.69 -11 414 C-22.06 425 -22.06 425 -29 425 C-29 424.34 -29 423.68 -29 423 C-21.57 419.71 -21.57 419.71 -18 419 C-18 418.34 -18 417.68 -18 417 C-17.34 417 -16.68 417 -16 417 C-15.66 416.16 -15.66 416.16 -15.31 415.31 C-14 413 -14 413 -11.75 411 C-7.51 406.97 -5.38 401.25 -3 396 C-2.47 394.96 -2.47 394.96 -1.93 393.91 C-0.61 389.76 -0.78 385.89 -0.86 381.56 C-0.87 380.6 -0.88 379.64 -0.89 378.65 C-0.92 376.54 -0.94 374.42 -0.97 372.31 C-1.02 368.83 -1.06 365.35 -1.1 361.88 C-1.15 356.75 -1.21 351.62 -1.28 346.49 C-1.44 333.02 -1.56 319.56 -1.68 306.09 C-1.7 304.56 -1.71 303.04 -1.72 301.51 C-2.09 260.3 -2.13 219.09 -2.12 177.88 C-2.12 176.96 -2.12 176.05 -2.12 175.11 C-2.12 129.6 -2.05 84.08 -1.56 38.56 C-1.55 37.61 -1.54 36.65 -1.53 35.66 C-1.48 30.37 -1.42 25.07 -1.35 19.78 C-1.33 18.25 -1.31 16.71 -1.29 15.18 C-1.27 13.15 -1.24 11.12 -1.21 9.09 C-1.19 7.97 -1.17 6.86 -1.16 5.71 C-1 3 -1 3 0 0 Z " fill="#9B2CFA" transform="translate(2101,166)"/>
<path d="M0 0 C0.66 0.33 1.32 0.66 2 1 C1.6 1.44 1.2 1.87 0.79 2.32 C-2.51 6.04 -4.91 9.45 -7 14 C-7.4 14.56 -7.8 15.13 -8.21 15.71 C-13.14 23 -12.69 30.6 -12.61 39.06 C-12.61 40.69 -12.62 42.32 -12.62 43.96 C-12.64 48.44 -12.62 52.91 -12.59 57.39 C-12.58 62.23 -12.58 67.06 -12.59 71.89 C-12.6 81.36 -12.58 90.82 -12.55 100.29 C-12.52 111.31 -12.51 122.34 -12.51 133.36 C-12.5 153.03 -12.48 172.7 -12.43 192.37 C-12.39 211.46 -12.36 230.54 -12.35 249.63 C-12.35 250.8 -12.35 251.98 -12.35 253.19 C-12.34 257.91 -12.34 262.64 -12.34 267.36 C-12.33 287.75 -12.3 308.14 -12.28 328.52 C-12.27 331.82 -12.27 335.12 -12.27 338.42 C-12.25 349.97 -12.24 361.52 -12.21 373.08 C-12.2 377.85 -12.19 382.63 -12.19 387.41 C-12.18 391.78 -12.17 396.16 -12.16 400.53 C-12.16 402.11 -12.15 403.69 -12.15 405.27 C-12.15 412.91 -12.06 420.42 -11 428 C-16.29 422.71 -15.26 413.77 -15.28 406.79 C-15.27 405.29 -15.27 403.79 -15.27 402.28 C-15.27 400.67 -15.28 399.06 -15.28 397.45 C-15.29 393.04 -15.29 388.62 -15.29 384.21 C-15.29 379.44 -15.3 374.67 -15.31 369.91 C-15.33 360.58 -15.33 351.24 -15.33 341.91 C-15.34 334.32 -15.34 326.73 -15.35 319.14 C-15.36 297.62 -15.37 276.1 -15.37 254.57 C-15.37 253.41 -15.37 252.25 -15.37 251.06 C-15.37 249.9 -15.37 248.73 -15.37 247.54 C-15.37 228.72 -15.39 209.9 -15.42 191.08 C-15.45 171.75 -15.46 152.42 -15.46 133.09 C-15.46 122.24 -15.46 111.39 -15.48 100.54 C-15.5 91.3 -15.51 82.07 -15.49 72.83 C-15.49 68.12 -15.49 63.41 -15.5 58.7 C-15.52 54.38 -15.52 50.06 -15.5 45.74 C-15.5 44.18 -15.5 42.63 -15.51 41.07 C-15.59 28.81 -14.36 17.1 -6.38 7.31 C-5.6 6.34 -4.82 5.37 -4.02 4.36 C-2 2 -2 2 0 0 Z " fill="#16D7F2" transform="translate(85,139)"/>
<path d="M0 0 C1.09 -0 2.19 -0 3.32 -0.01 C6.99 -0.01 10.65 -0 14.32 0 C16.96 0 19.59 0 22.23 -0 C28.66 -0.01 35.09 -0 41.52 0.01 C49.09 0.02 56.67 0.02 64.24 0.02 C77.85 0.02 91.46 0.03 105.07 0.04 C118.09 0.06 131.1 0.06 144.12 0.06 C213.76 0.06 283.41 0.07 353.05 1.25 C353.05 1.58 353.05 1.91 353.05 2.25 C307.24 2.27 261.43 2.29 215.62 2.3 C210.21 2.3 204.81 2.3 199.41 2.3 C198.33 2.3 197.25 2.3 196.14 2.3 C178.71 2.31 161.27 2.32 143.83 2.32 C125.95 2.33 108.07 2.34 90.18 2.34 C79.14 2.34 68.1 2.35 57.06 2.36 C49.49 2.36 41.93 2.36 34.37 2.36 C30 2.36 25.63 2.36 21.26 2.37 C17.27 2.37 13.27 2.37 9.28 2.37 C7.83 2.37 6.38 2.37 4.93 2.37 C2.96 2.38 1 2.37 -0.96 2.37 C-2.05 2.37 -3.14 2.37 -4.27 2.37 C-6.95 2.25 -6.95 2.25 -9.95 1.25 C-10.28 1.91 -10.61 2.57 -10.95 3.25 C-13.46 3.88 -13.46 3.88 -16.51 4.37 C-18.03 4.62 -18.03 4.62 -19.58 4.88 C-20.75 5.06 -20.75 5.06 -21.95 5.25 C-21.95 6.24 -21.95 7.23 -21.95 8.25 C-23.6 8.25 -25.25 8.25 -26.95 8.25 C-27.28 9.24 -27.61 10.23 -27.95 11.25 C-28.94 10.92 -29.93 10.59 -30.95 10.25 C-21.68 2.14 -12.02 -0.06 0 0 Z " fill="#07C9F1" transform="translate(117.95111083984375,127.75276184082031)"/>
<path d="M0 0 C2.31 0.66 4.62 1.32 7 2 C7 2.66 7 3.32 7 4 C7.81 4 8.62 4 9.45 4 C36.16 3.97 62.86 3.95 89.56 3.94 C90.59 3.94 91.62 3.94 92.68 3.94 C154.46 3.91 216.23 4.05 278 4.5 C279.24 4.51 279.24 4.51 280.5 4.52 C301 4.67 321.5 4.83 342 5 C342 5.33 342 5.66 342 6 C299.75 6.09 257.5 6.16 215.24 6.2 C210.25 6.21 205.27 6.21 200.28 6.22 C198.79 6.22 198.79 6.22 197.27 6.22 C181.19 6.24 165.11 6.27 149.03 6.31 C132.53 6.35 116.03 6.37 99.53 6.38 C89.35 6.38 79.17 6.4 68.99 6.43 C62.01 6.45 55.02 6.46 48.04 6.45 C44.01 6.45 39.99 6.46 35.96 6.48 C32.27 6.5 28.58 6.5 24.88 6.48 C22.92 6.48 20.97 6.5 19.01 6.52 C11.52 6.47 5.71 5.39 -1 2 C-0.67 1.34 -0.34 0.68 0 0 Z " fill="#0D96F9" transform="translate(96,588)"/>
<path d="M0 0 C125.73 0 251.46 0 381 0 C381 0.33 381 0.66 381 1 C257.25 1 133.5 1 6 1 C5.67 1.99 5.34 2.98 5 4 C3.32 3.03 1.65 2.03 0 1 C0 0.67 0 0.34 0 0 Z " fill="#03162D" transform="translate(596,146)"/>
<path d="M0 0 C3.14 1.54 6.09 3.06 9 5 C9 5.66 9 6.32 9 7 C9.99 7.33 10.98 7.66 12 8 C13.32 10.2 14.46 12.32 15.56 14.62 C15.87 15.23 16.17 15.83 16.48 16.46 C19.65 22.93 21.25 28.96 21.23 36.22 C21.23 36.9 21.23 37.59 21.23 38.29 C21.23 40.53 21.21 42.76 21.2 45 C21.19 46.56 21.19 48.11 21.19 49.67 C21.18 53.76 21.16 57.84 21.14 61.93 C21.12 66.11 21.11 70.28 21.1 74.46 C21.08 82.64 21.04 90.82 21 99 C20.34 99 19.68 99 19 99 C19 130.68 19 162.36 19 195 C18.67 195 18.34 195 18 195 C18 194.13 18 193.26 17.99 192.37 C17.93 171.24 17.86 150.1 17.76 128.97 C17.72 118.75 17.68 108.53 17.65 98.31 C17.63 89.4 17.6 80.49 17.55 71.58 C17.53 66.87 17.51 62.15 17.5 57.43 C17.5 52.99 17.48 48.55 17.45 44.11 C17.44 42.48 17.43 40.85 17.43 39.23 C17.44 26.55 16.33 16.49 7 7 C4.45 5.08 1.83 3.47 -1 2 C-0.67 1.34 -0.34 0.68 0 0 Z " fill="#7A2BF0" transform="translate(2068,146)"/>
<path d="M0 0 C0.33 0 0.66 0 1 0 C1 53.79 1 107.58 1 163 C0.67 163 0.34 163 0 163 C-2.16 127.49 -2.08 92.04 -1.72 56.47 C-1.69 52.8 -1.65 49.13 -1.62 45.46 C-1.56 39.6 -1.5 33.75 -1.43 27.89 C-1.4 25.7 -1.38 23.5 -1.35 21.3 C-1.32 18.27 -1.28 15.24 -1.24 12.21 C-1.23 11.32 -1.22 10.42 -1.21 9.5 C-1.2 8.68 -1.18 7.86 -1.17 7.02 C-1.16 6.31 -1.15 5.6 -1.14 4.87 C-1 3 -1 3 0 0 Z " fill="#802EF6" transform="translate(2101,166)"/>
<path d="M0 0 C0.66 0.33 1.32 0.66 2 1 C2.14 17.87 2.25 34.75 2.31 51.62 C2.34 59.45 2.38 67.29 2.45 75.13 C2.51 81.96 2.55 88.79 2.56 95.63 C2.57 99.24 2.59 102.86 2.63 106.47 C2.68 110.52 2.68 114.56 2.68 118.61 C2.71 120.39 2.71 120.39 2.75 122.19 C2.68 130.55 0.7 137.02 -4 144 C-5.49 144.99 -5.49 144.99 -7 146 C-6.61 143.22 -6.29 141.38 -4.56 139.12 C0.09 132.8 -0.69 124.75 -0.68 117.27 C-0.67 116 -0.66 114.73 -0.65 113.43 C-0.62 109.96 -0.61 106.5 -0.6 103.04 C-0.58 99.41 -0.55 95.79 -0.53 92.17 C-0.48 85.31 -0.44 78.45 -0.41 71.6 C-0.37 63.79 -0.32 55.98 -0.27 48.17 C-0.17 32.11 -0.08 16.06 0 0 Z " fill="#892DFC" transform="translate(609,423)"/>
<path d="M0 0 C0.82 -0 1.64 -0 2.48 -0.01 C5.18 -0.01 7.87 0 10.57 0.01 C12.48 0.01 14.39 0.01 16.3 0.01 C20.31 0.02 24.32 0.02 28.34 0.04 C33.38 0.05 38.43 0.06 43.47 0.06 C66.51 0.06 89.52 0.32 112.54 1.24 C112.54 1.57 112.54 1.9 112.54 2.24 C97.34 2.27 82.14 2.28 66.93 2.29 C59.88 2.3 52.82 2.31 45.76 2.32 C38.95 2.33 32.14 2.34 25.33 2.34 C22.73 2.34 20.13 2.34 17.53 2.35 C13.89 2.36 10.26 2.36 6.62 2.36 C5.54 2.36 4.46 2.36 3.34 2.37 C2.35 2.37 1.36 2.36 0.35 2.36 C-0.51 2.36 -1.37 2.37 -2.26 2.37 C-4.46 2.24 -4.46 2.24 -7.46 1.24 C-7.79 1.9 -8.12 2.56 -8.46 3.24 C-10.96 3.88 -10.96 3.88 -14.02 4.37 C-15.54 4.62 -15.54 4.62 -17.09 4.88 C-18.26 5.06 -18.26 5.06 -19.46 5.24 C-19.46 6.23 -19.46 7.22 -19.46 8.24 C-21.11 8.24 -22.76 8.24 -24.46 8.24 C-24.79 9.23 -25.12 10.22 -25.46 11.24 C-26.45 10.91 -27.44 10.58 -28.46 10.24 C-20.13 2.95 -10.93 -0.08 0 0 Z " fill="#07DAED" transform="translate(115.456787109375,127.757080078125)"/>
<path d="M0 0 C2.31 0.66 4.62 1.32 7 2 C7 2.66 7 3.32 7 4 C50.89 4 94.78 4 140 4 C140 4.66 140 5.32 140 6 C123.09 6.09 106.19 6.16 89.28 6.21 C81.43 6.23 73.57 6.26 65.72 6.3 C58.88 6.34 52.03 6.37 45.18 6.38 C41.56 6.38 37.94 6.39 34.32 6.42 C30.27 6.46 26.21 6.46 22.16 6.45 C20.38 6.48 20.38 6.48 18.56 6.5 C11.22 6.46 5.58 5.28 -1 2 C-0.67 1.34 -0.34 0.68 0 0 Z " fill="#07B0F7" transform="translate(96,588)"/>
<path d="M0 0 C0.66 0.33 1.32 0.66 2 1 C1.6 1.44 1.2 1.87 0.79 2.32 C-2.51 6.04 -4.91 9.45 -7 14 C-7.4 14.64 -7.8 15.27 -8.21 15.93 C-11.8 21.69 -12.7 26.02 -12.55 32.73 C-12.55 33.66 -12.55 34.6 -12.55 35.55 C-12.54 38.62 -12.5 41.68 -12.45 44.75 C-12.44 46.93 -12.43 49.1 -12.42 51.28 C-12.4 57.02 -12.35 62.77 -12.29 68.51 C-12.19 77.56 -12.15 86.61 -12.1 95.66 C-12.08 97.88 -12.07 100.11 -12.06 102.33 C-11.91 123.57 -12.3 144.77 -13 166 C-13.33 166 -13.66 166 -14 166 C-14.09 147.38 -14.16 128.76 -14.21 110.14 C-14.23 101.49 -14.26 92.85 -14.3 84.2 C-14.34 76.66 -14.37 69.13 -14.38 61.59 C-14.38 57.6 -14.39 53.61 -14.42 49.62 C-14.45 45.86 -14.46 42.1 -14.45 38.34 C-14.45 36.31 -14.48 34.29 -14.5 32.26 C-14.45 21.94 -12.08 15.28 -5.88 7.06 C-5.19 6.15 -4.51 5.23 -3.8 4.29 C-2 2 -2 2 0 0 Z " fill="#01E4EE" transform="translate(85,139)"/>
<path d="M0 0 C2.31 0.81 2.31 0.81 3.31 1.81 C4.05 9.9 3.24 16.48 -1.38 23.31 C-1.81 23.81 -2.24 24.3 -2.69 24.81 C-6.32 20.16 -7.24 17.26 -7.19 11.19 C-7.2 9.9 -7.21 8.6 -7.22 7.27 C-6.69 3.81 -6.69 3.81 -4.82 1.34 C-2.69 -0.19 -2.69 -0.19 0 0 Z " fill="#2663F6" transform="translate(459.6875,330.1875)"/>
<path d="M0 0 C0.33 0 0.66 0 1 0 C1.07 13.27 1.12 26.55 1.16 39.82 C1.17 45.99 1.19 52.15 1.23 58.31 C1.26 64.27 1.28 70.22 1.28 76.17 C1.29 78.44 1.3 80.71 1.32 82.97 C1.34 86.16 1.34 89.34 1.34 92.52 C1.35 93.45 1.36 94.38 1.37 95.34 C1.33 104.27 -0.64 111.5 -6.83 118.07 C-10.8 121.61 -15.18 124.73 -20 127 C-20.99 126.67 -21.98 126.34 -23 126 C-22.2 125.52 -21.41 125.03 -20.59 124.53 C-10.81 118.35 -4.72 112.06 -1 101 C-0.47 97.56 -0.43 94.19 -0.45 90.71 C-0.44 89.72 -0.43 88.73 -0.42 87.72 C-0.39 84.49 -0.39 81.26 -0.39 78.03 C-0.38 75.78 -0.36 73.52 -0.34 71.27 C-0.3 65.37 -0.28 59.47 -0.26 53.56 C-0.24 47.53 -0.2 41.5 -0.16 35.46 C-0.08 23.64 -0.03 11.82 0 0 Z " fill="#9328E7" transform="translate(2086,451)"/>
<path d="M0 0 C0.33 0 0.66 0 1 0 C0.38 6.19 -0.51 12.27 -1.6 18.4 C-2.08 21.06 -2.08 21.06 -2 24 C-2.66 24.99 -3.32 25.98 -4 27 C-4.38 28.66 -4.73 30.32 -5 32 C-4.24 31.93 -3.48 31.86 -2.7 31.78 C-1.71 31.69 -0.71 31.6 0.31 31.5 C1.3 31.41 2.28 31.31 3.3 31.22 C6 31 6 31 9 31 C7.79 32.49 6.55 33.97 5.31 35.44 C4.63 36.26 3.94 37.08 3.24 37.93 C0.72 40.25 -0.59 40.96 -4 41 C-6.21 39.38 -6.92 38.46 -7.4 35.74 C-7.33 28.32 -6 21.65 -4.06 14.5 C-3.78 13.43 -3.51 12.36 -3.22 11.26 C-2.23 7.47 -1.24 3.71 0 0 Z " fill="#4B47F6" transform="translate(545,361)"/>
<path d="M0 0 C0.66 0 1.32 0 2 0 C2.37 1.22 2.74 2.43 3.12 3.69 C4.8 8.25 7.08 10.21 11 13 C10.67 13.66 10.34 14.32 10 15 C9.42 14.34 8.85 13.68 8.25 13 C3.33 9.97 -1.37 10.1 -7 11 C-9.02 12.09 -10.56 13.33 -12.3 14.81 C-16.13 17.48 -20.89 17.36 -25.35 16.6 C-27.25 16.14 -29.13 15.58 -31 15 C-31 14.34 -31 13.68 -31 13 C-29.88 13.08 -28.75 13.16 -27.6 13.25 C-17.59 13.95 -17.59 13.95 -8.75 9.88 C-5.54 6.83 -2.77 3.44 0 0 Z " fill="#474CF9" transform="translate(517,400)"/>
<path d="M0 0 C0.33 0 0.66 0 1 0 C1 8.58 1 17.16 1 26 C1.99 25.67 2.98 25.34 4 25 C4 25.66 4 26.32 4 27 C4.93 26.53 5.86 26.05 6.81 25.56 C10 24 10 24 13 23 C11.56 27.1 9.56 30.3 7 33.81 C6.3 34.79 5.6 35.76 4.88 36.77 C3.95 37.87 3.95 37.87 3 39 C2.34 39 1.68 39 1 39 C0.11 30.23 -0.12 21.56 -0.06 12.75 C-0.06 11.52 -0.05 10.28 -0.05 9.01 C-0.04 6.01 -0.02 3 0 0 Z " fill="#4477F7" transform="translate(430,356)"/>
<path d="M0 0 C0.66 0.99 1.32 1.98 2 3 C1.01 4.98 0.02 6.96 -1 9 C4.44 9.99 4.44 9.99 10 11 C10.66 9.35 11.32 7.7 12 6 C12.99 6 13.98 6 15 6 C11.62 11.43 9.37 14.13 3 16 C-3.19 16.41 -3.19 16.41 -6 15 C-5.28 11.51 -3.94 8.48 -2.44 5.25 C-1.98 4.27 -1.53 3.28 -1.06 2.27 C-0.71 1.52 -0.36 0.77 0 0 Z " fill="#325EF6" transform="translate(471,346)"/>
<path d="M0 0 C0.99 0.66 1.98 1.32 3 2 C3.19 4.62 3.19 4.62 3 7 C2.13 7.14 1.27 7.29 0.38 7.44 C-1.3 7.72 -1.3 7.72 -3 8 C-4.03 8.17 -5.06 8.33 -6.12 8.5 C-8.46 8.91 -10.72 9.38 -13 10 C-12.78 6.19 -12.01 5.01 -9.31 2.19 C-5.71 -0.19 -4.21 -0.66 0 0 Z " fill="#2A4EF7" transform="translate(520,344)"/>
<path d="M0 0 C-0.99 4.84 -1.96 9.48 -4 14 C-7.3 13.34 -10.6 12.68 -14 12 C-5.4 0 -5.4 0 0 0 Z " fill="#1879F6" transform="translate(375,353)"/>
<path d="M0 0 C13.86 0 27.72 0 42 0 C41.34 1.32 40.68 2.64 40 4 C39.51 3.01 39.51 3.01 39 2 C26.13 2 13.26 2 0 2 C0 1.34 0 0.68 0 0 Z " fill="#DEDFE3" transform="translate(1499,283)"/>
<path d="M0 0 C0.66 0 1.32 0 2 0 C1.98 0.94 1.98 0.94 1.95 1.91 C1.89 4.79 1.85 7.68 1.81 10.56 C1.79 11.55 1.76 12.54 1.74 13.56 C1.66 21.33 2.64 26.89 8.06 32.81 C8.57 33.38 9.08 33.94 9.6 34.52 C10.71 35.7 11.85 36.85 13 38 C9.95 37.67 8.36 37.34 6.09 35.21 C-1.89 24.59 -2.52 17 -1 4 C-0.7 2.66 -0.39 1.32 0 0 Z " fill="#325DF6" transform="translate(473,375)"/>
<path d="M0 0 C0.33 0.66 0.66 1.32 1 2 C0.07 4.13 0.07 4.13 -1.31 6.56 C-1.99 7.77 -1.99 7.77 -2.68 9 C-4 11 -4 11 -6 12 C-6.91 13.62 -7.82 15.25 -8.71 16.88 C-11.12 20.84 -14.09 24.4 -17 28 C-17.99 27.67 -18.98 27.34 -20 27 C-18.93 25.57 -18.93 25.57 -17.84 24.11 C-12.72 17.21 -7.78 10.33 -3.34 2.98 C-2 1 -2 1 0 0 Z " fill="#3263F7" transform="translate(459,373)"/>
<path d="M0 0 C0.66 0 1.32 0 2 0 C2.7 1.62 3.38 3.25 4.06 4.88 C4.45 5.78 4.83 6.68 5.22 7.62 C6 10 6 10 5 12 C2.69 12.73 0.35 13.4 -2 14 C-2.66 13.34 -3.32 12.68 -4 12 C-3.63 7.66 -1.77 3.93 0 0 Z " fill="#101725" transform="translate(1638,328)"/>
<path d="M0 0 C4.22 1.51 5.8 4.21 8 8 C10.98 17.7 8.13 26.08 4 35 C3.34 35.99 2.68 36.98 2 38 C1.34 38 0.68 38 0 38 C0 37.34 0 36.68 0 36 C0.66 36 1.32 36 2 36 C2.2 35.31 2.41 34.63 2.62 33.92 C2.89 33.02 3.16 32.12 3.44 31.19 C3.7 30.29 3.97 29.4 4.25 28.48 C4.8 26.65 5.39 24.82 6 23 C6.12 21.04 6.18 19.08 6.19 17.12 C6.2 16.1 6.22 15.07 6.23 14.01 C5.89 9.5 4.05 5.96 2 2 C1.34 2 0.68 2 0 2 C0 1.34 0 0.68 0 0 Z " fill="#1EA8E3" transform="translate(231,286)"/>
<path d="M0 0 C1.13 3.41 1 4 -0.38 7.62 C-4.98 16.11 -12.3 23.7 -21 28 C-23.77 28.65 -23.77 28.65 -26 29 C-26 28.34 -26 27.68 -26 27 C-18.57 23.71 -18.57 23.71 -15 23 C-15 22.34 -15 21.68 -15 21 C-14.34 21 -13.68 21 -13 21 C-12.77 20.44 -12.55 19.89 -12.31 19.31 C-11 17 -11 17 -8.75 15 C-4.49 11 -2.42 5.22 0 0 Z " fill="#AA2AFB" transform="translate(2098,562)"/>
<path d="M0 0 C0.66 0.99 1.32 1.98 2 3 C1.01 5.64 0.02 8.28 -1 11 C10.22 11 21.44 11 33 11 C33 11.33 33 11.66 33 12 C20.79 12 8.58 12 -4 12 C-2.67 8 -1.33 4 0 0 Z " fill="#F3F3F4" transform="translate(965,433)"/>
<path d="M0 0 C0.33 0 0.66 0 1 0 C0.38 6.19 -0.51 12.27 -1.6 18.4 C-2.08 21.06 -2.08 21.06 -2 24 C-2.33 24.66 -2.66 25.32 -3 26 C-3.99 26 -4.98 26 -6 26 C-5.4 19.94 -4.14 14.34 -2.44 8.5 C-2.2 7.68 -1.97 6.86 -1.73 6.01 C-1.16 4 -0.58 2 0 0 Z " fill="#5F61F6" transform="translate(545,361)"/>
<path d="M0 0 C0 0.66 0 1.32 0 2 C-6.03 6.31 -10.25 7.52 -17.62 6.49 C-20 6 -20 6 -23 5 C-23 4.34 -23 3.68 -23 3 C-21.82 3.03 -20.64 3.07 -19.42 3.11 C-17.86 3.13 -16.31 3.16 -14.75 3.19 C-13.97 3.21 -13.2 3.24 -12.39 3.26 C-7.36 3.33 -4.14 0 0 0 Z " fill="#5865F6" transform="translate(509,410)"/>
<path d="M0 0 C0 5.99 -5.33 11.19 -9.25 15.43 C-11.14 17.32 -13.04 19.18 -15 21 C-15.99 20.67 -16.98 20.34 -18 20 C-17.2 19.23 -16.41 18.45 -15.59 17.66 C-9.88 12.06 -4.57 6.59 0 0 Z " fill="#1D8CEA" transform="translate(239,409)"/>
<path d="M0 0 C3.14 1.54 6.09 3.06 9 5 C9 5.66 9 6.32 9 7 C9.99 7.33 10.98 7.66 12 8 C13.35 10.34 14.54 12.62 15.69 15.06 C16.01 15.73 16.33 16.39 16.66 17.07 C17.45 18.71 18.23 20.35 19 22 C18.34 22.99 17.68 23.98 17 25 C16.86 24.45 16.73 23.91 16.59 23.35 C13.95 14.08 8.91 7.52 0.5 2.78 C0.01 2.52 -0.49 2.26 -1 2 C-0.67 1.34 -0.34 0.68 0 0 Z " fill="#702EE9" transform="translate(2068,146)"/>
<path d="M0 0 C5.28 1.76 7.36 7.33 10 12 C12.05 16.19 13.46 19.4 12 24 C11.33 22.38 10.66 20.75 10 19.12 C9.63 18.22 9.26 17.32 8.88 16.38 C8 14 8 14 8 12 C7.34 11.67 6.68 11.34 6 11 C5.53 10.03 5.05 9.06 4.56 8.06 C3.2 4.78 3.2 4.78 0 3 C0 2.01 0 1.02 0 0 Z " fill="#8440F8" transform="translate(2088,142)"/>
<path d="M0 0 C0.66 0.33 1.32 0.66 2 1 C1.6 1.44 1.2 1.87 0.79 2.32 C-2.51 6.04 -4.91 9.45 -7 14 C-7.84 15.57 -8.7 17.13 -9.56 18.69 C-9.98 19.43 -10.39 20.18 -10.82 20.95 C-11.81 22.67 -12.9 24.34 -14 26 C-13.13 15.5 -7.37 7.37 0 0 Z " fill="#31E6F2" transform="translate(85,139)"/>
<path d="M0 0 C-0.66 0 -1.32 0 -2 0 C-2.33 0.66 -2.66 1.32 -3 2 C-5.5 3.11 -8.05 4.02 -10.62 4.94 C-13.07 6.03 -14.17 7.09 -16 9 C-20.44 12 -20.44 12 -24 12 C-8.36 -2.79 -8.36 -2.79 0 0 Z " fill="#1DB4E2" transform="translate(216,285)"/>
<path d="M0 0 C3.31 1.1 3.67 1.6 5.5 4.38 C7.15 6.86 8.83 8.95 11 11 C6.25 9.12 6.25 9.12 4 8 C2.34 7.64 0.67 7.31 -1 7 C-0.67 4.69 -0.34 2.38 0 0 Z " fill="#1A8DE8" transform="translate(243,402)"/>
<path d="M0 0 C1.67 1.67 3.33 3.33 5 5 C6.27 6.24 6.27 6.24 7.56 7.5 C10 10 10 10 11.94 12.62 C14.34 15.39 16.66 16.56 20 18 C20 18.66 20 19.32 20 20 C11.36 17.57 4.72 9.24 0 2 C0 1.34 0 0.68 0 0 Z " fill="#20C6F8" transform="translate(75,569)"/>
<path d="M0 0 C0 0.99 0 1.98 0 3 C-2.5 5.19 -2.5 5.19 -5 7 C-3.71 4.12 -2.34 2.13 0 0 Z M-8 8 C-7.34 8.33 -6.68 8.66 -6 9 C-10.41 13.39 -13.5 15.88 -20 16 C-22.94 15.56 -22.94 15.56 -25 15 C-25 14.67 -25 14.34 -25 14 C-24.44 13.99 -23.89 13.97 -23.31 13.96 C-17.67 13.6 -14.19 12.3 -9.63 8.96 C-9.09 8.64 -8.55 8.33 -8 8 Z " fill="#6960F5" transform="translate(556,400)"/>
<path d="M0 0 C-0.99 0 -1.98 0 -3 0 C-3.33 0.66 -3.66 1.32 -4 2 C-6.5 2.63 -6.5 2.63 -9.56 3.12 C-11.08 3.38 -11.08 3.38 -12.63 3.63 C-13.8 3.81 -13.8 3.81 -15 4 C-15 4.99 -15 5.98 -15 7 C-16.65 7 -18.3 7 -20 7 C-20.33 7.99 -20.66 8.98 -21 10 C-21.99 9.67 -22.98 9.34 -24 9 C-18.26 3.98 -7.88 -3.15 0 0 Z " fill="#1CE2EE" transform="translate(111,129)"/>
<path d="M0 0 C0.66 0.33 1.32 0.66 2 1 C1 3 1 3 -1.12 3.89 C-10.32 6.45 -18.63 5.92 -28 5 C-28 4.67 -28 4.34 -28 4 C-27.44 3.99 -26.87 3.97 -26.29 3.96 C-23.69 3.88 -21.1 3.78 -18.5 3.69 C-17.17 3.65 -17.17 3.65 -15.81 3.62 C-9.9 3.38 -5.48 2.2 0 0 Z " fill="#359DEB" transform="translate(203,439)"/>
<path d="M0 0 C0.66 0.66 1.32 1.32 2 2 C-5.53 4.61 -12 6.54 -20 6 C-20 5.34 -20 4.68 -20 4 C-16.88 3.22 -14.37 3.02 -11.12 3.12 C-6.78 3.21 -3.86 1.93 0 0 Z " fill="#1990E5" transform="translate(206,422)"/>
<path d="M0 0 C1.2 2.89 1.02 3.96 -0.11 6.95 C-0.65 7.99 -1.19 9.04 -1.75 10.12 C-2.28 11.18 -2.81 12.23 -3.36 13.32 C-5 16 -5 16 -8 18 C-7.62 15.27 -7.31 13.4 -5.62 11.19 C-3.64 8.52 -2.73 5.83 -1.65 2.71 C-1 1 -1 1 0 0 Z " fill="#8D1FE7" transform="translate(610,551)"/>
<path d="M0 0 C0.99 0 1.98 0 3 0 C2.52 1.63 2.04 3.25 1.56 4.88 C1.3 5.78 1.03 6.68 0.75 7.62 C0 10 0 10 -1 12 C-1.99 12 -2.98 12 -4 12 C-3.52 10.37 -3.04 8.75 -2.56 7.12 C-2.3 6.22 -2.03 5.32 -1.75 4.38 C-1 2 -1 2 0 0 Z " fill="#1F2838" transform="translate(1036,358)"/>
<path d="M0 0 C0.99 0.33 1.98 0.66 3 1 C3.42 3.08 3.81 5.16 4.19 7.25 C4.41 8.41 4.63 9.57 4.86 10.77 C5 14 5 14 3.55 16.42 C3.04 16.94 2.53 17.46 2 18 C1.94 17.12 1.88 16.24 1.82 15.33 C1.73 14.17 1.65 13.01 1.56 11.81 C1.48 10.66 1.4 9.52 1.32 8.33 C1.05 5.48 0.62 2.79 0 0 Z " fill="#1E55F7" transform="translate(470,327)"/>
<path d="M0 0 C0.27 0.58 0.54 1.15 0.82 1.75 C3.62 7.09 7.58 11.92 12 16 C8.88 15.67 7.32 15.3 4.98 13.14 C0.1 6.79 0.1 6.79 -0.44 2.44 C-0.29 1.63 -0.15 0.83 0 0 Z " fill="#4661F9" transform="translate(474,397)"/>
<path d="M0 0 C2.5 2.25 2.5 2.25 5 5 C5 6.32 5 7.64 5 9 C3.35 8.67 1.7 8.34 0 8 C0 5.36 0 2.72 0 0 Z " fill="#111C31" transform="translate(1222,348)"/>
<path d="M0 0 C1.07 1.78 1.07 1.78 2 4 C0.56 8.56 -0.81 11.54 -5 14 C-4.47 8.65 -2.53 4.64 0 0 Z " fill="#2D3647" transform="translate(804,337)"/>
<path d="M0 0 C0.66 0 1.32 0 2 0 C2.66 1.98 3.32 3.96 4 6 C3.34 6 2.68 6 2 6 C2 5.34 2 4.68 2 4 C1.07 4.85 0.14 5.69 -0.81 6.56 C-2.39 8 -2.39 8 -4 9 C-4.99 8.67 -5.98 8.34 -7 8 C-5.88 6.66 -4.76 5.33 -3.62 4 C-2.69 2.89 -2.69 2.89 -1.73 1.75 C-1.16 1.17 -0.59 0.6 0 0 Z " fill="#2389EF" transform="translate(285,400)"/>
<path d="M0 0 C0.66 0.99 1.32 1.98 2 3 C-5.51 9.83 -5.51 9.83 -9.16 10.24 C-11.06 9.94 -11.06 9.94 -14 9 C-14 8.67 -14 8.34 -14 8 C-12.78 7.77 -11.57 7.55 -10.31 7.31 C-6.03 6.27 -3.87 4.39 -1 1 C-0.67 0.67 -0.34 0.34 0 0 Z " fill="#3867F7" transform="translate(434,406)"/>
<path d="M0 0 C7.92 0.33 15.84 0.66 24 1 C24 1.33 24 1.66 24 2 C23.38 2.03 22.77 2.05 22.14 2.08 C19.34 2.19 16.55 2.31 13.75 2.44 C12.78 2.48 11.81 2.52 10.82 2.56 C9.41 2.62 9.41 2.62 7.98 2.68 C7.13 2.72 6.27 2.76 5.38 2.79 C3.15 2.99 1.15 3.39 -1 4 C-0.67 2.68 -0.34 1.36 0 0 Z " fill="#E9E9EC" transform="translate(1498,284)"/>
<path d="M0 0 C3.96 0 7.92 0 12 0 C12.33 0.66 12.66 1.32 13 2 C8.95 2.98 5.16 3.08 1 3 C0.67 2.01 0.34 1.02 0 0 Z " fill="#2BB7E4" transform="translate(216,283)"/>
<path d="M0 0 C3.69 1.46 5.16 3.3 7.25 6.62 C8.03 7.85 8.03 7.85 8.83 9.1 C9.21 9.73 9.6 10.35 10 11 C9.34 11.66 8.68 12.32 8 13 C6.85 11.4 5.7 9.79 4.56 8.19 C3.92 7.29 3.29 6.4 2.63 5.48 C1 3 1 3 0 0 Z " fill="#141B2E" transform="translate(1286,434)"/>
<path d="M0 0 C1.32 0.33 2.64 0.66 4 1 C4 1.66 4 2.32 4 3 C6.64 3.33 9.28 3.66 12 4 C11.67 4.99 11.34 5.98 11 7 C5.96 6.56 3.59 4.34 0 1 C0 0.67 0 0.34 0 0 Z " fill="#1996E5" transform="translate(170,419)"/>
<path d="M0 0 C0 0.99 0 1.98 0 3 C-2.75 5.06 -2.75 5.06 -6 7 C-6.7 7.43 -7.4 7.87 -8.12 8.31 C-10.46 9.17 -11.7 8.82 -14 8 C-13.38 7.71 -12.76 7.42 -12.12 7.12 C-9.87 6.06 -9.87 6.06 -8 4 C-6.64 3.25 -5.27 2.55 -3.88 1.88 C-3.15 1.52 -2.43 1.17 -1.68 0.8 C-1.13 0.54 -0.57 0.27 0 0 Z " fill="#8725EA" transform="translate(601,569)"/>
<path d="M0 0 C1.81 0.25 1.81 0.25 4 1 C5 2.33 6 3.67 7 5 C9.09 5.8 9.09 5.8 11 6 C11 6.99 11 7.98 11 9 C6.4 7.51 3.5 5.25 0 2 C0 1.34 0 0.68 0 0 Z " fill="#121A2B" transform="translate(814,400)"/>
<path d="M0 0 C0.33 0 0.66 0 1 0 C1 3.63 1 7.26 1 11 C-0.65 9.35 -2.3 7.7 -4 6 C-2.7 3.98 -1.36 1.98 0 0 Z " fill="#2870F8" transform="translate(410,389)"/>
<path d="M0 0 C2.44 0.38 2.44 0.38 5 1 C6 3 6 3 5.06 6.12 C4.71 7.07 4.36 8.02 4 9 C1.5 6.06 0.53 3.82 0 0 Z " fill="#111A2D" transform="translate(1452,389)"/>
<path d="M0 0 C0.33 1.32 0.66 2.64 1 4 C0.22 4.6 -0.57 5.2 -1.38 5.81 C-4.15 7.91 -4.15 7.91 -6 11 C-9.12 11.69 -9.12 11.69 -12 12 C-9.08 9 -5.92 6.33 -2.74 3.62 C-0.9 2.1 -0.9 2.1 0 0 Z " fill="#1DA2E8" transform="translate(253,320)"/>
<path d="M0 0 C2.31 0.66 4.62 1.32 7 2 C7 2.66 7 3.32 7 4 C8.98 4 10.96 4 13 4 C13 4.66 13 5.32 13 6 C7.59 5.53 3.79 4.76 -1 2 C-0.67 1.34 -0.34 0.68 0 0 Z " fill="#2AC7F9" transform="translate(96,588)"/>
<path d="M0 0 C0.66 0 1.32 0 2 0 C2.75 1.62 2.75 1.62 3 4 C1.19 7.25 1.19 7.25 -1 10 C-1.66 10 -2.32 10 -3 10 C-2.01 6.7 -1.02 3.4 0 0 Z " fill="#1E2638" transform="translate(1048,328)"/>
<path d="M0 0 C0.33 0 0.66 0 1 0 C1.75 3.66 2.24 6.42 1 10 C1.66 10.33 2.32 10.66 3 11 C2.34 11 1.68 11 1 11 C0.67 11.99 0.34 12.98 0 14 C-0.33 14 -0.66 14 -1 14 C-1.18 4.59 -1.18 4.59 0 0 Z " fill="#1C62F6" transform="translate(432,346)"/>
<path d="M0 0 C-1.45 4.34 -4.39 5.17 -8.31 7.19 C-8.87 7.46 -9.43 7.72 -10 8 C-8.18 3.38 -5.13 0 0 0 Z " fill="#368AF3" transform="translate(375,353)"/>
<path d="M0 0 C1.68 0.29 3.34 0.62 5 1 C4.67 2.32 4.34 3.64 4 5 C2.35 4.67 0.7 4.34 -1 4 C-1.33 4.66 -1.66 5.32 -2 6 C-1.12 1.12 -1.12 1.12 0 0 Z " fill="#1255F4" transform="translate(456,331)"/>
<path d="M0 0 C0.33 0.99 0.66 1.98 1 3 C-0.65 4.65 -2.3 6.3 -4 8 C-4.99 7.67 -5.98 7.34 -7 7 C-4.78 4.09 -3.07 2.05 0 0 Z " fill="#172132" transform="translate(817,323)"/>
<path d="M0 0 C5.44 1.49 5.44 1.49 11 3 C11 3.99 11 4.98 11 6 C9.35 5.58 7.71 5.14 6.06 4.69 C5.15 4.44 4.23 4.2 3.29 3.95 C2.53 3.64 1.78 3.32 1 3 C0.67 2.01 0.34 1.02 0 0 Z " fill="#15A8E1" transform="translate(230,270)"/>
<path d="M0 0 C0.33 0.66 0.66 1.32 1 2 C1.66 2.33 2.32 2.66 3 3 C1.68 5.31 0.36 7.62 -1 10 C-1.66 10 -2.32 10 -3 10 C-2.01 6.7 -1.02 3.4 0 0 Z " fill="#222B3B" transform="translate(1600,421)"/>
<path d="M0 0 C0.95 2.17 1.14 3.56 0.4 5.82 C-0.36 7.57 -1.18 9.29 -2 11 C-2.33 11 -2.66 11 -3 11 C-2.89 9.54 -2.76 8.08 -2.62 6.62 C-2.56 5.81 -2.49 5 -2.41 4.16 C-2 2 -2 2 0 0 Z " fill="#1A68F3" transform="translate(395,357)"/>
<path d="M0 0 C1.98 0 3.96 0 6 0 C6.33 1.98 6.66 3.96 7 6 C6.67 5.34 6.34 4.68 6 4 C4.35 4 2.7 4 1 4 C0.67 2.68 0.34 1.36 0 0 Z " fill="#D3EAFA" transform="translate(287,360)"/>
<path d="M0 0 C-1.44 3.81 -3.35 5.27 -7 7 C-7.66 6.67 -8.32 6.34 -9 6 C-7.88 4.99 -6.75 4 -5.62 3 C-4.69 2.16 -4.69 2.16 -3.73 1.31 C-2 0 -2 0 0 0 Z " fill="#1D94E8" transform="translate(283,345)"/>
<path d="M0 0 C2.47 0.99 2.47 0.99 5 2 C5 2.66 5 3.32 5 4 C6.32 4.33 7.64 4.66 9 5 C8.01 6.49 8.01 6.49 7 8 C1.25 3.25 1.25 3.25 -1 1 C-0.67 0.67 -0.34 0.34 0 0 Z " fill="#1AA8E6" transform="translate(242,275)"/>
<path d="M0 0 C2 3 2 3 1.64 5.01 C1.37 5.71 1.1 6.41 0.81 7.12 C0.55 7.83 0.29 8.53 0.02 9.26 C-1 11 -1 11 -4 12 C-2.67 8 -1.33 4 0 0 Z " fill="#CFD2D7" transform="translate(965,433)"/>
<path d="M0 0 C6.75 1.75 6.75 1.75 9 4 C7.12 4.62 7.12 4.62 5 5 C4.34 4.34 3.68 3.68 3 3 C2.01 3 1.02 3 0 3 C0 2.01 0 1.02 0 0 Z " fill="#8049F5" transform="translate(2067,129)"/>
<path d="M0 0 C0.99 0 1.98 0 3 0 C1.51 5.44 1.51 5.44 0 11 C-0.66 9.68 -1.32 8.36 -2 7 C-1.34 7 -0.68 7 0 7 C-0.19 6.4 -0.37 5.8 -0.56 5.19 C-1 3 -1 3 0 0 Z " fill="#2E97EF" transform="translate(290,367)"/>
<path d="M0 0 C0.66 0.99 1.32 1.98 2 3 C1.54 5.26 1.54 5.26 0.62 7.69 C0.18 8.9 0.18 8.9 -0.27 10.14 C-0.51 10.75 -0.75 11.37 -1 12 C-1.66 11.67 -2.32 11.34 -3 11 C-2.01 7.37 -1.02 3.74 0 0 Z " fill="#278DEF" transform="translate(320,343)"/>
<path d="M0 0 C0.33 0.66 0.66 1.32 1 2 C0.22 4.16 0.22 4.16 -0.94 6.62 C-1.32 7.44 -1.7 8.26 -2.09 9.1 C-2.39 9.73 -2.69 10.35 -3 11 C-3.66 11 -4.32 11 -5 11 C-5 9.68 -5 8.36 -5 7 C-4.34 7 -3.68 7 -3 7 C-2.88 6.4 -2.75 5.8 -2.62 5.19 C-2 3 -2 3 0 0 Z " fill="#1462F8" transform="translate(446,327)"/>
<path d="M0 0 C0.66 0.33 1.32 0.66 2 1 C1.05 2.17 0.09 3.34 -0.88 4.5 C-1.41 5.15 -1.94 5.8 -2.49 6.47 C-2.99 6.97 -3.49 7.48 -4 8 C-4.66 8 -5.32 8 -6 8 C-4.56 4.63 -2.67 2.49 0 0 Z " fill="#1457F8" transform="translate(401,402)"/>
<path d="M0 0 C-0.33 0.99 -0.66 1.98 -1 3 C-3.91 3.81 -5.46 4.22 -8.31 3.06 C-8.87 2.71 -9.43 2.36 -10 2 C-3.38 0 -3.38 0 0 0 Z " fill="#1A2435" transform="translate(836,316)"/>
<path d="M0 0 C3.63 0 7.26 0 11 0 C11 0.33 11 0.66 11 1 C9.35 1 7.7 1 6 1 C5.67 1.99 5.34 2.98 5 4 C3.32 3.03 1.65 2.03 0 1 C0 0.67 0 0.34 0 0 Z " fill="#041C3B" transform="translate(596,146)"/>
<path d="M0 0 C0.66 1.32 1.32 2.64 2 4 C1.01 5.32 0.02 6.64 -1 8 C-1.99 7.67 -2.98 7.34 -4 7 C-2.68 4.69 -1.36 2.38 0 0 Z " fill="#8423D4" transform="translate(2083,557)"/>
<path d="M0 0 C0.66 0.99 1.32 1.98 2 3 C0.99 6.77 0.32 7.78 -3 10 C-2.01 6.7 -1.02 3.4 0 0 Z " fill="#252C3B" transform="translate(1594,436)"/>
<path d="M0 0 C2 0 2 0 3.69 1.19 C5 3 5 3 4.69 5.69 C4.46 6.45 4.23 7.21 4 8 C1.1 5.6 0.5 3.69 0 0 Z " fill="#323949" transform="translate(1714,410)"/>
<path d="M0 0 C0.33 0 0.66 0 1 0 C2.35 7.26 2.35 7.26 0.56 11 C0.05 11.66 -0.47 12.32 -1 13 C-2.41 10.19 -1.67 8.43 -1.06 5.38 C-0.87 4.37 -0.67 3.37 -0.47 2.34 C-0.32 1.57 -0.16 0.79 0 0 Z " fill="#3C83F4" transform="translate(396,345)"/>
<path d="M0 0 C0.66 0 1.32 0 2 0 C2.33 1.65 2.66 3.3 3 5 C1.35 5.33 -0.3 5.66 -2 6 C-1.34 4.02 -0.68 2.04 0 0 Z " fill="#2E374A" transform="translate(1638,328)"/>
<path d="M0 0 C-2.97 1.98 -4.51 2.66 -8 3 C-10.31 2.06 -10.31 2.06 -12 1 C-7.95 0.02 -4.16 -0.08 0 0 Z " fill="#0C131F" transform="translate(865,409)"/>
<path d="M0 0 C0.06 0.62 0.12 1.24 0.19 1.88 C0.83 4.28 0.83 4.28 3.56 5.25 C4.37 5.5 5.17 5.75 6 6 C6 6.33 6 6.66 6 7 C4 7.04 2 7.04 0 7 C-1 6 -1 6 -1.12 3.5 C-1 1 -1 1 0 0 Z " fill="#0F78EA" transform="translate(308,392)"/>
<path d="M0 0 C0.33 0.66 0.66 1.32 1 2 C2.32 2 3.64 2 5 2 C5 3.98 5 5.96 5 8 C2.5 5.69 2.5 5.69 0 3 C0 2.01 0 1.02 0 0 Z " fill="#141D2E" transform="translate(1282,363)"/>
<path d="M0 0 C0.33 0.99 0.66 1.98 1 3 C-1.97 5.48 -1.97 5.48 -5 8 C-5 5 -5 5 -2.5 2.31 C-1.67 1.55 -0.85 0.79 0 0 Z " fill="#0E0E3E" transform="translate(603,568)"/>
<path d="M0 0 C0.99 0 1.98 0 3 0 C2.75 1.88 2.75 1.88 2 4 C-0.06 5.25 -0.06 5.25 -2 6 C-1.34 4.02 -0.68 2.04 0 0 Z " fill="#2B3343" transform="translate(1013,415)"/>
<path d="M0 0 C0.66 0 1.32 0 2 0 C0.56 3.37 -1.33 5.51 -4 8 C-4 4.07 -2.61 2.84 0 0 Z " fill="#0F8DE8" transform="translate(236,396)"/>
<path d="M0 0 C2.31 0.33 4.62 0.66 7 1 C6.01 2.49 6.01 2.49 5 4 C3.06 3.69 3.06 3.69 1 3 C0.67 2.01 0.34 1.02 0 0 Z " fill="#1D6CF6" transform="translate(386,397)"/>
<path d="M0 0 C1.65 0 3.3 0 5 0 C4.67 0.99 4.34 1.98 4 3 C1.94 3.69 1.94 3.69 0 4 C0 2.68 0 1.36 0 0 Z " fill="#0E1521" transform="translate(1274,351)"/>
<path d="M0 0 C0.66 0.66 1.32 1.32 2 2 C1.62 4.62 1.62 4.62 1 7 C0.01 7 -0.98 7 -2 7 C-1.34 4.69 -0.68 2.38 0 0 Z " fill="#252E3E" transform="translate(1044,338)"/>
</svg>
